<?xml version="1.0" encoding="UTF-8"?>
<svg version="1.1" xmlns="http://www.w3.org/2000/svg" width="512" height="512">
<path d="M0 0 C38.28 0 76.56 0 116 0 C116 29.04 116 58.08 116 88 C132.83 88 149.66 88 167 88 C167.33 147.4 167.66 206.8 168 268 C174.93 270.64 181.86 273.28 189 276 C192.80527672 277.62851964 196.56599374 279.25556212 200.3125 281 C201.17166016 281.39316406 202.03082031 281.78632813 202.91601562 282.19140625 C204.94681871 283.12171828 206.97477046 284.05763486 209 285 C217.94597345 266.6179707 226.87704933 248.23015367 235.67431641 229.77636719 C238.60403241 223.6406894 241.54986813 217.51270269 244.4987793 211.38623047 C247.06582798 206.04901857 249.61444239 200.70412357 252.1328125 195.34375 C252.63554687 194.27833984 253.13828125 193.21292969 253.65625 192.11523438 C254.61709422 190.07727357 255.57302859 188.03698883 256.5234375 185.99414062 C257.16539062 184.63579102 257.16539062 184.63579102 257.8203125 183.25 C258.19430176 182.45078125 258.56829102 181.6515625 258.95361328 180.828125 C260 179 260 179 262 178 C264.70996094 179.17382813 264.70996094 179.17382813 268.234375 181.03125 C268.88417328 181.3699411 269.53397156 181.7086322 270.20346069 182.05758667 C272.38936946 183.1980761 274.5695861 184.34904476 276.75 185.5 C279.90607979 187.15378208 283.0656222 188.80084159 286.2265625 190.4453125 C287.06955902 190.8843692 287.91255554 191.3234259 288.78109741 191.77578735 C295.6500305 195.33725358 302.57672723 198.7728499 309.5234375 202.1796875 C311.63576009 203.21936467 313.74806486 204.25907805 315.86035156 205.29882812 C318.98939612 206.83823681 322.1204043 208.37277331 325.25866699 209.89331055 C328.20208756 211.32023194 331.13674693 212.76388965 334.0703125 214.2109375 C334.9603598 214.63631805 335.8504071 215.06169861 336.76742554 215.49996948 C337.57652374 215.90265045 338.38562195 216.30533142 339.21923828 216.72021484 C339.92863556 217.06563324 340.63803284 217.41105164 341.368927 217.76693726 C343 219 343 219 343.79563904 220.97648621 C344.10683396 224.05783412 342.89662561 225.96508699 341.52734375 228.71484375 C340.68357178 230.4333252 340.68357178 230.4333252 339.82275391 232.18652344 C339.19442853 233.43689549 338.56600783 234.68721965 337.9375 235.9375 C337.29220272 237.24319595 336.64818017 238.54952259 336.00537109 239.85644531 C334.66947806 242.57001679 333.32813467 245.28078924 331.98291016 247.98974609 C328.9783715 254.05143878 326.0560314 260.15249091 323.125 266.25 C321.96546866 268.6539505 320.80548485 271.05767437 319.64453125 273.4609375 C319.3518335 274.06693283 319.05913574 274.67292816 318.75756836 275.29728699 C316.49281245 279.98432533 314.22200566 284.66841394 311.94921875 289.3515625 C311.60791931 290.0548317 311.26661987 290.75810089 310.91497803 291.48268127 C309.5400466 294.31566642 308.16508074 297.14863485 306.78997803 299.98153687 C301.97451645 309.90387102 297.18654162 319.8387361 292.44848633 329.79833984 C292.04782959 330.63961426 291.64717285 331.48088867 291.234375 332.34765625 C290.6765332 333.52739014 290.6765332 333.52739014 290.10742188 334.73095703 C289.36452882 336.25310166 288.58904649 337.75973629 287.78320312 339.24951172 C285.61358081 342.93130805 285.61358081 342.93130805 285.26293945 347.04394531 C286.47405864 350.25808474 288.77086108 352.69601583 290.9375 355.3125 C325.9022801 398.87480374 345.24049184 456.17786713 344 512 C338.72 512 333.44 512 328 512 C327.84144531 509.83566406 327.68289063 507.67132813 327.51953125 505.44140625 C326.06247445 486.43196959 324.3687397 467.42441607 318.84765625 449.07421875 C318 446 318 446 318 442 C316.7934375 442.48210937 315.586875 442.96421875 314.34375 443.4609375 C312.72927018 444.09922022 311.11468098 444.73722632 309.5 445.375 C308.70851563 445.69210937 307.91703125 446.00921875 307.1015625 446.3359375 C302.11615794 448.29740815 297.22542646 449.81349262 292 451 C291.89768066 451.62946533 291.79536133 452.25893066 291.68994141 452.9074707 C290.34038436 460.7879453 288.42378254 468.46292355 286.375 476.1875 C285.88773437 478.0447168 285.88773437 478.0447168 285.390625 479.93945312 C284.5974221 482.96062299 283.80048292 485.98075248 283 489 C276.47556407 489.29006042 269.95088737 489.57418103 263.42602539 489.85449219 C261.21405408 489.95018319 259.00213761 490.04715183 256.7902832 490.14550781 C249.52793757 490.46791319 242.26517808 490.74996005 235 491 C234.11155396 491.03478455 233.22310791 491.06956909 232.30773926 491.10540771 C229.9304021 491.19305175 227.55415295 491.25397504 225.17578125 491.3046875 C223.86907471 491.34062012 222.56236816 491.37655273 221.21606445 491.41357422 C218 491 218 491 215.70654297 489.21704102 C213.74554884 486.62306777 212.43444105 483.91999044 211 481 C209.77054829 478.919753 208.49628605 476.87104221 207.21826172 474.8203125 C205.78937248 472.52535458 204.38684576 470.21588833 202.98828125 467.90234375 C199.87622505 462.77776236 196.69852022 457.6959679 193.5 452.625 C192.74360229 451.42145874 192.74360229 451.42145874 191.97192383 450.19360352 C191.49650146 449.44135498 191.0210791 448.68910645 190.53125 447.9140625 C190.11423828 447.2535791 189.69722656 446.5930957 189.26757812 445.91259766 C188.84927734 445.28144043 188.43097656 444.6502832 188 444 C187.649375 443.27973633 187.29875 442.55947266 186.9375 441.81738281 C183.69437725 438.7753206 179.76171275 439.21861325 175.46875 439.0078125 C173.52322418 438.8595439 171.57791521 438.70840717 169.6328125 438.5546875 C166.57682284 438.33088781 163.52423623 438.1262161 160.46386719 437.97265625 C142.52171579 437.01574151 142.52171579 437.01574151 137.32739258 431.91992188 C134.91348197 429.07233359 132.95308275 426.03757423 131.09638977 422.80554199 C129.23600887 419.7418543 126.95174332 417.02086723 124.6875 414.25 C119.84059771 408.08703073 115.02293777 401.90144795 110.22070312 395.70361328 C107.40632566 392.07499871 104.5779562 388.46065952 101.69921875 384.8828125 C101.18939453 384.24601562 100.67957031 383.60921875 100.15429688 382.953125 C99.20415788 381.76893046 98.24874127 380.58894331 97.28710938 379.4140625 C95.0864388 376.66406681 93.39796002 374.53501728 93 371 C93.85766602 369.05908203 93.85766602 369.05908203 95.25390625 367.0078125 C96.03109009 365.84245972 96.03109009 365.84245972 96.82397461 364.65356445 C97.39768799 363.81913818 97.97140137 362.98471191 98.5625 362.125 C99.7643308 360.33030362 100.96480245 358.53469649 102.1640625 356.73828125 C102.79344727 355.80193848 103.42283203 354.8655957 104.07128906 353.90087891 C107.27141679 349.08772477 110.35116436 344.19909384 113.4375 339.3125 C114.56012184 337.53707955 115.68377963 335.7623136 116.80859375 333.98828125 C117.51713501 332.86740112 117.51713501 332.86740112 118.23999023 331.72387695 C118.82079346 330.82499756 119.40159668 329.92611816 120 329 C120.266987 328.26381439 120.533974 327.52762878 120.80905151 326.76913452 C122.19778802 323.69921688 123.34049282 322.1109821 126 320 C132.56276286 317.86990614 139.80971988 317.98042596 146.640625 317.625 C148.69018285 317.48715586 150.73948209 317.34541582 152.78851318 317.19995117 C158.17147877 316.82772327 163.55628478 316.50592186 168.94311523 316.19537354 C174.43529744 315.87089079 179.92454453 315.50314362 185.4140625 315.13671875 C191.57534287 314.72553473 197.73644526 314.3181229 203.90045166 313.94970703 C205.30206543 313.86412285 205.30206543 313.86412285 206.73199463 313.77680969 C208.48090634 313.67052503 210.23002811 313.56762392 211.97937012 313.46867371 C216.12325308 313.30228305 216.12325308 313.30228305 220 312 C187.48177375 292.73625391 154.75457406 279.17558566 117 274 C116.26080322 273.896875 115.52160645 273.79375 114.76000977 273.6875 C106.15412752 272.65696561 97.46749137 272.75621524 88.8125 272.75 C87.96751953 272.74932526 87.12253906 272.74865051 86.25195312 272.74795532 C72.62991737 272.76519555 59.40990829 273.43274189 46 276 C45.12666016 276.16097168 44.25332031 276.32194336 43.35351562 276.48779297 C1.9900238 284.32817807 -34.45640756 302.71002113 -67 329 C-68.66666667 330.33333333 -70.33333333 331.66666667 -72 333 C-71.11441406 333.4125 -70.22882813 333.825 -69.31640625 334.25 C-65.96754891 335.81060592 -62.62007018 337.37415048 -59.27294922 338.93847656 C-57.72807182 339.65997247 -56.18281014 340.38064599 -54.63720703 341.10058594 C-52.29883973 342.19000352 -49.96180947 343.28224558 -47.625 344.375 C-46.51040405 344.89320313 -46.51040405 344.89320313 -45.37329102 345.421875 C-40.11379525 347.88620475 -40.11379525 347.88620475 -39 349 C-38.91232888 351.07262076 -38.89304127 353.14820294 -38.90234375 355.22265625 C-38.90556641 356.48271484 -38.90878906 357.74277344 -38.91210938 359.04101562 C-38.92046597 360.38151109 -38.92893093 361.72200588 -38.9375 363.0625 C-38.9425134 364.40689942 -38.94707658 365.7513006 -38.95117188 367.09570312 C-38.96300512 370.39717941 -38.97949029 373.69856803 -39 377 C-38.07566162 377.14767822 -37.15132324 377.29535645 -36.19897461 377.44750977 C-28.70148331 378.74239054 -20.96073149 380.74748968 -16.375 387.1875 C-15.21898424 389.10665575 -14.0982819 391.04723065 -13 393 C-11.78146683 395.01260975 -10.54555268 397.01406253 -9.31054688 399.01660156 C-7.9052416 401.30247152 -6.51709933 403.59823642 -5.12890625 405.89453125 C-1.04099517 412.61389402 3.22365102 419.22167224 7.49243164 425.82714844 C8.35082642 427.16374512 8.35082642 427.16374512 9.2265625 428.52734375 C9.73783691 429.31874756 10.24911133 430.11015137 10.77587891 430.92553711 C12 433 12 433 13 436 C12.43690491 438.10710144 12.43690491 438.10710144 11.46118164 440.56323242 C11.10073257 441.48396042 10.74028351 442.40468842 10.36891174 443.35331726 C9.97002243 444.34402725 9.57113312 445.33473724 9.16015625 446.35546875 C8.75921249 447.37224197 8.35826874 448.3890152 7.94517517 449.43659973 C6.65973558 452.690459 5.36129586 455.9389519 4.0625 459.1875 C3.18989551 461.38963349 2.3181397 463.59210348 1.44726562 465.79492188 C-0.69198221 471.20056097 -2.84193244 476.6018487 -5 482 C-11.54933211 480.48144736 -17.91874346 478.7483889 -24.26953125 476.52734375 C-26.14988879 475.88424385 -28.03024778 475.24114777 -29.91088867 474.59887695 C-31.19166731 474.15342448 -32.46837887 473.69612262 -33.7409668 473.2277832 C-40.86119124 470.28790665 -40.86119124 470.28790665 -48.18798828 470.82397461 C-50.08652615 472.40042486 -51.49006876 474.05010813 -53 476 C-54.20589081 477.26126587 -55.41966368 478.51503606 -56.640625 479.76171875 C-57.84764976 481.0667163 -59.05076022 482.37534478 -60.25 483.6875 C-61.46313106 485.00428466 -62.67665821 486.32070453 -63.890625 487.63671875 C-64.68001465 488.49849731 -64.68001465 488.49849731 -65.48535156 489.37768555 C-65.98518555 489.91304932 -66.48501953 490.44841309 -67 491 C-67.36396378 491.52143585 -67.72792755 492.0428717 -68.10292053 492.58010864 C-71.08414794 494.81144323 -74.2911329 494.39160778 -77.86791992 494.34057617 C-78.66815079 494.34101425 -79.46838165 494.34145233 -80.29286194 494.34190369 C-82.93897872 494.33981297 -85.5844626 494.31646894 -88.23046875 494.29296875 C-90.06463779 494.28737379 -91.89881132 494.28310322 -93.73298645 494.28010559 C-98.56147633 494.26864891 -103.38969566 494.23917465 -108.21807861 494.20599365 C-113.14469747 494.17531051 -118.07136002 494.16160401 -122.99804688 494.14648438 C-132.66548348 494.11430574 -142.33271925 494.06309943 -152 494 C-151.98839844 495.21558594 -151.97679687 496.43117188 -151.96484375 497.68359375 C-151.95546722 499.26822764 -151.94636687 500.85286318 -151.9375 502.4375 C-151.92912109 503.23994141 -151.92074219 504.04238281 -151.91210938 504.86914062 C-151.9034857 506.91295221 -151.9477185 508.95683902 -152 511 C-153 512 -153 512 -156.37890625 512.09765625 C-157.77347077 512.09098369 -159.16801743 512.07902532 -160.5625 512.0625 C-161.27341797 512.05798828 -161.98433594 512.05347656 -162.71679688 512.04882812 C-164.47790013 512.03700864 -166.23896036 512.01907263 -168 512 C-170.31744642 451.14029176 -146.78382629 393.77301514 -109 347 C-113.89531218 335.90648894 -118.96194279 324.91216601 -124.25 314 C-129.18718061 303.80988887 -134.00790699 293.57315135 -138.75488281 283.29321289 C-144.36080588 271.1747236 -150.08765808 259.11403003 -155.82104492 247.05541992 C-157.2544857 244.04055831 -158.68238187 241.02317951 -160.10546875 238.00341797 C-161.27678553 235.51804673 -162.46706875 233.04640131 -163.67578125 230.57861328 C-164.14371094 229.60520996 -164.61164063 228.63180664 -165.09375 227.62890625 C-165.49271484 226.81623291 -165.89167969 226.00355957 -166.30273438 225.16625977 C-167.13432294 222.58268646 -166.93685369 221.51949794 -166 219 C-163.5391717 217.43679628 -161.20101447 216.15359722 -158.59033203 214.88989258 C-157.42691284 214.30621162 -157.42691284 214.30621162 -156.23999023 213.71073914 C-153.66907742 212.42517172 -151.08875163 211.15983311 -148.5078125 209.89453125 C-146.72222949 209.00699856 -144.93723279 208.11828538 -143.15280151 207.22843933 C-138.4484235 204.8867879 -133.73570183 202.56241754 -129.02124023 200.2411499 C-125.17232639 198.34256762 -121.3293678 196.43211725 -117.48669624 194.52093983 C-109.55345946 190.57549429 -101.61634793 186.63777337 -93.66845703 182.72192383 C-92.93275482 182.35777374 -92.19705261 181.99362366 -91.4390564 181.61843872 C-88.65037765 180.24780723 -85.95191785 178.98397262 -83 178 C-82.51926025 179.03664795 -82.51926025 179.03664795 -82.02880859 180.09423828 C-74.26577134 196.83131364 -66.48046196 213.55782947 -58.67311096 230.27427673 C-56.55338527 234.81337176 -54.43635804 239.35371961 -52.3203125 243.89453125 C-45.92434417 257.61739397 -39.50798488 271.32978838 -33 285 C-32.49251221 284.75354736 -31.98502441 284.50709473 -31.4621582 284.25317383 C-29.08150428 283.10089753 -26.69703802 281.95671558 -24.3125 280.8125 C-23.51521484 280.42513672 -22.71792969 280.03777344 -21.89648438 279.63867188 C-15.01091641 276.34557415 -8.19207048 273.76618095 -1 271 C-0.67 181.57 -0.34 92.14 0 0 Z M16 15 C16 97.83 16 180.66 16 266 C33.59740667 262.39009445 33.59740667 262.39009445 51 258 C51 201.9 51 145.8 51 88 C67.17 88 83.34 88 100 88 C100 63.91 100 39.82 100 15 C72.28 15 44.56 15 16 15 Z M67 104 C67 154.49 67 204.98 67 257 C80.2 257 93.4 257 107 257 C119.61684114 258.17757184 131.87137418 259.68114841 144.20703125 262.44921875 C147.17961016 263.12898442 147.17961016 263.12898442 151 263 C151 210.53 151 158.06 151 104 C123.28 104 95.56 104 67 104 Z M268 200 C260.97029984 213.92583395 254.12037258 227.92605302 247.42236328 242.01416016 C244.96055477 247.18201428 242.47939086 252.34056469 240 257.5 C234.31973678 269.32683751 228.65690135 281.16197314 223 293 C226.47245243 296.66500986 229.96184525 299.49711249 234.1875 302.3125 C243.78722648 308.82005259 252.43530198 316.19101063 261 324 C262.45333899 325.31802812 263.91128776 326.6310013 265.375 327.9375 C265.98085938 328.48277344 266.58671875 329.02804687 267.2109375 329.58984375 C269.05542398 331.04368571 270.89160899 331.98178945 273 333 C287.12152712 304.23328621 287.12152712 304.23328621 301.00878906 275.35327148 C303.68061607 269.72912887 306.39981713 264.12980212 309.140625 258.5390625 C310.24808222 256.27471882 311.35518478 254.01020198 312.46224976 251.7456665 C313.18707932 250.26625264 313.91393884 248.78783135 314.64297485 247.31048584 C315.66425239 245.24071483 316.67842183 243.1675896 317.69140625 241.09375 C317.99608826 240.4811734 318.30077026 239.8685968 318.61468506 239.23745728 C320.57030739 235.21231767 321.88114167 231.31151317 323 227 C315.97771712 223.47729556 308.95436853 219.95672606 301.92963505 216.43891144 C298.66813452 214.80554705 295.40701182 213.17143738 292.14672852 211.53564453 C289.00292412 209.95832689 285.85815894 208.38294084 282.71270561 206.80891418 C280.92327647 205.91282022 279.13485951 205.01470595 277.34645081 204.11657715 C276.26540573 203.57601685 275.18436066 203.03545654 274.07055664 202.47851562 C273.11347305 201.99886353 272.15638947 201.51921143 271.17030334 201.02502441 C269.24932711 199.92882326 269.24932711 199.92882326 268 200 Z M-92 200 C-92.61752136 200.30876068 -93.23504272 200.61752136 -93.87127686 200.93563843 C-119.93563843 213.96781921 -119.93563843 213.96781921 -146 227 C-145.37678861 231.01824276 -144.0925027 234.20794095 -142.296875 237.84765625 C-141.73581055 238.99484131 -141.17474609 240.14202637 -140.59667969 241.32397461 C-140.29644897 241.93159637 -139.99621826 242.53921814 -139.68688965 243.16525269 C-138.06989593 246.43974398 -136.47323558 249.72413554 -134.875 253.0078125 C-134.38287018 254.01747322 -134.38287018 254.01747322 -133.88079834 255.04753113 C-130.75532413 261.47318619 -127.74076506 267.94812212 -124.75 274.4375 C-118.59905845 287.77067869 -112.31332197 301.03826864 -106.00292969 314.29663086 C-105.62711761 315.08748077 -105.25130554 315.87833069 -104.86410522 316.69314575 C-104.1613306 318.17202237 -103.45749373 319.65039491 -102.75234985 321.12814331 C-100.73304685 325.37955941 -98.82809411 329.66277788 -97 334 C-93.23919982 330.86599985 -89.65876432 327.70190784 -86.25 324.1875 C-75.12809448 312.95926651 -61.6059928 303.05252635 -48 295 C-48.6326653 290.96531031 -49.92356418 287.68888594 -51.66796875 284.00390625 C-52.22427979 282.82103027 -52.78059082 281.6381543 -53.35375977 280.41943359 C-53.96496695 279.13377025 -54.57621482 277.84812626 -55.1875 276.5625 C-55.8208167 275.21983986 -56.45353773 273.8768986 -57.08569336 272.53369141 C-58.40018262 269.74189751 -59.71722952 266.95133228 -61.03613281 264.16162109 C-63.77693127 258.35970832 -66.48806419 252.54400865 -69.19851685 246.72787476 C-70.06152961 244.87708108 -70.92595411 243.026953 -71.79077148 241.17700195 C-74.77977277 234.78051493 -77.75096722 228.37631492 -80.69921875 221.9609375 C-81.59480832 220.01635143 -82.49070533 218.0719073 -83.38668823 216.12750244 C-84.23246816 214.28812768 -85.07342841 212.44659995 -85.91430664 210.60498047 C-86.4221167 209.50299316 -86.92992676 208.40100586 -87.453125 207.265625 C-87.89817383 206.29399414 -88.34322266 205.32236328 -88.80175781 204.32128906 C-89.90836502 201.88897556 -89.90836502 201.88897556 -92 200 Z M222.51464844 328.61083984 C221.62549744 328.67590225 220.73634644 328.74096466 219.82025146 328.80799866 C216.91631618 329.02168286 214.01283843 329.24094097 211.109375 329.4609375 C209.07538636 329.61319414 207.04138964 329.76534283 205.00738525 329.91738892 C200.7609006 330.23585545 196.51466351 330.5574225 192.26855469 330.88085938 C186.83313974 331.29437922 181.39699821 331.6973479 175.96059799 332.09767723 C171.76686608 332.40814095 167.57368316 332.72557659 163.38062286 333.04497147 C161.37618762 333.19654638 159.37156286 333.34563674 157.36675262 333.49216843 C154.5664832 333.6976103 151.76712174 333.91278355 148.96777344 334.13037109 C148.1447876 334.18863571 147.32180176 334.24690033 146.47387695 334.30693054 C138.41392862 334.84857161 138.41392862 334.84857161 132.03710938 339.28735352 C131.47830078 340.22506592 130.91949219 341.16277832 130.34375 342.12890625 C129.71339844 343.16466797 129.08304687 344.20042969 128.43359375 345.26757812 C127.47646484 346.89856445 127.47646484 346.89856445 126.5 348.5625 C125.21991777 350.68950531 123.93868388 352.81581799 122.65625 354.94140625 C122.04652344 355.9689502 121.43679688 356.99649414 120.80859375 358.05517578 C118.68221348 361.51743264 116.36764108 364.81277069 113.95117188 368.07788086 C112.80990255 369.95430838 112.80990255 369.95430838 113.21337891 372.06323242 C114.50508008 375.2435755 116.72358317 377.74061204 118.875 380.375 C119.8829874 381.63267235 120.89079495 382.89048884 121.8984375 384.1484375 C122.4150293 384.7887793 122.93162109 385.42912109 123.46386719 386.08886719 C125.83512502 389.03899533 128.16665634 392.01986393 130.5 395 C131.40601891 396.15382733 132.31227032 397.30747213 133.21875 398.4609375 C133.67121094 399.03682617 134.12367188 399.61271484 134.58984375 400.20605469 C136.06955623 402.0884867 137.55031445 403.97009259 139.03125 405.8515625 C139.77665039 406.79902344 139.77665039 406.79902344 140.53710938 407.765625 C141.48596152 408.97164269 142.43515938 410.17738849 143.38476562 411.3828125 C146.97339831 415.94527205 146.97339831 415.94527205 148.03515625 418.12963867 C151.32997078 421.26601716 155.36474453 420.72059841 159.75 420.88671875 C161.74113932 421.02035789 163.7320227 421.15785558 165.72265625 421.29882812 C168.85194232 421.50439988 171.9748637 421.68658211 175.10888672 421.80102539 C191.95854089 422.47399474 191.95854089 422.47399474 196.94638062 426.61651611 C200.37796652 430.60917124 202.71599018 435.1031855 204.95257568 439.84341431 C206.45315332 442.93301631 208.27071113 445.71497987 210.14453125 448.59375 C211.36865119 450.56159025 212.5913488 452.53031611 213.8125 454.5 C215.63679763 457.44179931 217.46088518 460.37842517 219.34594727 463.28173828 C221 466 221 466 222.15209961 468.71435547 C223.50335297 471.58292861 224.4279258 473.11831417 227 475 C233.03751317 476.00394654 238.86039278 475.56857577 244.9375 475.125 C246.58507777 475.0401184 248.23287285 474.95934894 249.88085938 474.8828125 C256.64391143 474.54135735 263.30519652 474.03503561 270 473 C271.79271636 468.03235698 273.21527316 463.24127692 274.18359375 458.046875 C277.32171818 441.72913884 277.32171818 441.72913884 281.3203125 437.609375 C284.51894835 436.31533998 287.61829716 435.70238002 291 435 C294.79051951 433.66539015 298.51433548 432.16759204 302.25 430.6875 C304.10801896 429.97950392 305.96729668 429.2747977 307.828125 428.57421875 C308.6315332 428.27088623 309.43494141 427.96755371 310.26269531 427.6550293 C310.83600586 427.43886963 311.40931641 427.22270996 312 427 C306.68204225 409.88775971 298.05482608 393.78368011 288 379 C287.39937744 378.10643799 287.39937744 378.10643799 286.78662109 377.19482422 C280.49900107 367.89887048 273.46077944 359.37246389 266 351 C265.26982666 350.17508057 265.26982666 350.17508057 264.52490234 349.33349609 C259.53039041 343.70689514 254.50428665 338.19884725 248.6875 333.40234375 C247 332 247 332 244.625 329.5625 C238.61889684 325.9874386 229.31722121 328.09065942 222.51464844 328.61083984 Z M-88.49609375 348.28125 C-89.48775558 349.34382986 -90.46739594 350.41770279 -91.4375 351.5 C-92.23039429 352.37688477 -92.23039429 352.37688477 -93.03930664 353.27148438 C-123.44729396 387.46752048 -145.25193753 432.27870717 -150 478 C-140.75955085 478.39684047 -131.52210054 478.69735731 -122.27494049 478.88080692 C-117.97886403 478.96894045 -113.68867931 479.08802789 -109.39599609 479.2824707 C-89.33335045 481.0071288 -89.33335045 481.0071288 -71.25952148 474.34008789 C-67.71923267 470.92304679 -64.89026702 467.20908269 -62.29624939 463.03761292 C-60.48186088 460.18552172 -58.33367771 457.81104671 -56.0625 455.3125 C-55.47597656 454.60738281 -54.88945313 453.90226562 -54.28515625 453.17578125 C-50.44361576 451.19919375 -46.91281564 452.80446658 -43 454 C-41.45759644 454.46732544 -41.45759644 454.46732544 -39.8840332 454.9440918 C-35.26662703 456.37470921 -30.66448729 457.85032273 -26.06640625 459.34179688 C-24.38224609 459.87450195 -24.38224609 459.87450195 -22.6640625 460.41796875 C-21.64779785 460.74563232 -20.6315332 461.0732959 -19.58447266 461.41088867 C-16.90525698 462.2568394 -16.90525698 462.2568394 -14 461 C-9.32526705 454.1136197 -5.81170377 445.27812001 -5 437 C-6.43018304 430.13084158 -10.88461737 424.75017265 -15.16943359 419.36376953 C-18.08971541 415.59287482 -20.54012309 411.54234901 -23.0625 407.5 C-23.94411436 406.13211333 -24.83048116 404.7672722 -25.72265625 403.40625 C-26.09140869 402.84228516 -26.46016113 402.27832031 -26.84008789 401.69726562 C-27.22285889 401.13716797 -27.60562988 400.57707031 -28 400 C-28.43812012 399.31389648 -28.87624023 398.62779297 -29.32763672 397.92089844 C-31.39242934 395.54925051 -33.08096313 394.8985518 -36.03515625 393.859375 C-37.00904297 393.51132812 -37.98292969 393.16328125 -38.98632812 392.8046875 C-40.5090332 392.28261719 -40.5090332 392.28261719 -42.0625 391.75 C-43.08150391 391.38648438 -44.10050781 391.02296875 -45.15039062 390.6484375 C-49.96368889 388.75293818 -49.96368889 388.75293818 -55 388 C-55 378.43 -55 368.86 -55 359 C-58.93032348 357.14323459 -62.86196042 355.29009513 -66.7980957 353.44580078 C-68.13663258 352.81733249 -69.47420731 352.18681074 -70.81079102 351.55419922 C-72.73204338 350.64529632 -74.65663378 349.7438322 -76.58203125 348.84375 C-77.73936768 348.29912109 -78.8967041 347.75449219 -80.08911133 347.19335938 C-84.11961017 345.54100021 -85.21254489 345.28032271 -88.49609375 348.28125 Z " fill="#223C91" transform="translate(168,0)"/>
<path d="M0 0 C13.92744876 0.44927254 27.80005387 1.38444472 41.6875 2.5 C42.93725113 2.59856796 42.93725113 2.59856796 44.21224976 2.6991272 C46.60412065 2.8887732 48.9954655 3.08398431 51.38671875 3.28125 C52.11084961 3.33854782 52.83498047 3.39584564 53.58105469 3.45487976 C56.57124058 3.70821795 59.13945727 4.04648576 62 5 C62.86196995 10.691447 63.71620104 16.38398361 64.56347656 22.07763672 C64.85239959 24.01186973 65.14338503 25.94579589 65.43652344 27.87939453 C65.85903029 30.66880201 66.27395388 33.4592517 66.6875 36.25 C66.81874268 37.10553467 66.94998535 37.96106934 67.08520508 38.8425293 C67.20532959 39.66277588 67.3254541 40.48302246 67.44921875 41.328125 C67.55580811 42.0387207 67.66239746 42.74931641 67.7722168 43.48144531 C68.0881083 46.97419639 68 50.49299308 68 54 C61.4 56.97 54.8 59.94 48 63 C49.52365104 67.57095312 51.20344861 71.73997656 53.29296875 76.04296875 C53.92940882 77.37677551 54.56546551 78.71076527 55.20117188 80.04492188 C56.19783757 82.12733381 57.19749815 84.20814235 58.20385742 86.28588867 C59.17986752 88.3049992 60.14351499 90.32963205 61.10546875 92.35546875 C61.41058884 92.97737595 61.71570892 93.59928314 62.03007507 94.24003601 C64.11350454 98.65948639 64.11350454 98.65948639 63 102 C57.9284982 102.85760498 52.85647325 103.71202005 47.78393555 104.56347656 C46.05820174 104.85361404 44.33261446 105.14462441 42.60717773 105.43652344 C40.1278213 105.85581063 37.64795583 106.27196135 35.16796875 106.6875 C34.39599655 106.81874268 33.62402435 106.94998535 32.82865906 107.08520508 C29.84755325 107.5822123 27.02824037 108 24 108 C22.36865234 105.78222656 22.36865234 105.78222656 20.5859375 102.640625 C20.09541649 101.78891472 20.09541649 101.78891472 19.59498596 100.91999817 C18.88489362 99.68455016 18.17984579 98.44619241 17.47921753 97.20535278 C15.60038035 93.87830046 13.68595944 90.57174595 11.77734375 87.26171875 C11.3846077 86.57810776 10.99187164 85.89449677 10.5872345 85.19017029 C5.83799629 76.94085618 0.86225728 68.83150437 -4.11376953 60.71777344 C-6.08923697 57.48642798 -8.04576954 54.24422458 -10 51 C-10.37533875 50.39065613 -10.75067749 49.78131226 -11.13739014 49.15350342 C-12.29190282 47.27586289 -13.42666432 45.38741356 -14.55859375 43.49609375 C-15.24107178 42.37259521 -15.9235498 41.24909668 -16.62670898 40.09155273 C-18.16825446 36.62122557 -18.26058981 35.51106472 -17 32 C-16.20767622 30.15561604 -15.35315141 28.33726015 -14.453125 26.54296875 C-13.9375 25.51236328 -13.421875 24.48175781 -12.890625 23.41992188 C-12.34921875 22.35322266 -11.8078125 21.28652344 -11.25 20.1875 C-10.7240625 19.13240234 -10.198125 18.07730469 -9.65625 16.99023438 C-6.70294602 11.12383229 -3.58493901 5.50354526 0 0 Z M9 17 C7.42860219 19.71305364 5.89855697 22.44733799 4.375 25.1875 C3.92898437 25.95642578 3.48296875 26.72535156 3.0234375 27.51757812 C2.4046875 28.64389648 2.4046875 28.64389648 1.7734375 29.79296875 C1.38591309 30.4789917 0.99838867 31.16501465 0.59912109 31.87182617 C-0.47472743 35.68630765 1.65528006 38.37281075 3.47363281 41.68115234 C4.04436523 42.63973145 4.61509766 43.59831055 5.203125 44.5859375 C6.16931763 46.21426514 6.16931763 46.21426514 7.1550293 47.87548828 C7.85287031 49.04228093 8.55120472 50.20877861 9.25 51.375 C9.77939682 52.26007233 9.77939682 52.26007233 10.31948853 53.1630249 C11.78166291 55.60755583 13.24421122 58.05185209 14.71028137 60.49404907 C17.17133416 64.59755085 19.59168531 68.72242231 21.99609375 72.859375 C23.22614119 74.94816482 24.45659007 77.03671832 25.6875 79.125 C26.25049805 80.10774902 26.81349609 81.09049805 27.39355469 82.10302734 C27.92754883 82.99973145 28.46154297 83.89643555 29.01171875 84.8203125 C29.47022217 85.60680176 29.92872559 86.39329102 30.40112305 87.20361328 C31.91064282 89.1858162 31.91064282 89.1858162 34.43676758 89.88623047 C37.28403676 90.01260702 38.61658467 89.50066891 41 88 C40.58113525 87.14245117 40.16227051 86.28490234 39.73071289 85.40136719 C38.17444925 82.21264315 36.62322148 79.02149118 35.07348633 75.82958984 C34.40265335 74.44969241 33.7304651 73.07045297 33.05688477 71.69189453 C32.08771557 69.70777989 31.12347994 67.72133302 30.16015625 65.734375 C29.85908463 65.12068054 29.558013 64.50698608 29.24781799 63.87469482 C27.83807731 60.95525053 26.61188086 58.19422552 26 55 C26.72179443 54.68772461 27.44358887 54.37544922 28.18725586 54.05371094 C31.44424319 52.6344093 34.69076309 51.19258633 37.9375 49.75 C39.07380859 49.25886719 40.21011719 48.76773438 41.38085938 48.26171875 C42.46044922 47.77832031 43.54003906 47.29492188 44.65234375 46.796875 C45.65257568 46.35698242 46.65280762 45.91708984 47.68334961 45.46386719 C50.10051902 44.23074394 50.10051902 44.23074394 50.86474609 42.12084961 C51.13058413 37.9523748 50.32662032 33.92195691 49.6875 29.8125 C49.55666016 28.88501953 49.42582031 27.95753906 49.29101562 27.00195312 C49.15759766 26.12087891 49.02417969 25.23980469 48.88671875 24.33203125 C48.76514404 23.52483643 48.64356934 22.7176416 48.51831055 21.88598633 C48.26174683 20.9524231 48.26174683 20.9524231 48 20 C43.87338781 17.9366939 38.66989913 18.29012148 34.125 17.9375 C33.0421875 17.84662109 31.959375 17.75574219 30.84375 17.66210938 C23.54713679 17.08308219 16.31817614 16.88851797 9 17 Z " fill="#223C91" transform="translate(178,305)"/>
<path d="M0 0 C4.10108886 1.62156024 6.83148167 4.5767703 9.859375 7.6640625 C10.40861633 8.21613373 10.95785767 8.76820496 11.52374268 9.33700562 C13.27059293 11.09501815 15.01034601 12.8598689 16.75 14.625 C17.93573591 15.8207708 19.1219288 17.01608865 20.30859375 18.2109375 C23.21105085 21.13540253 26.1071641 24.06601874 29 27 C29.33 24.69 29.66 22.38 30 20 C35.28 20 40.56 20 46 20 C46 32.21 46 44.42 46 57 C33.79 57 21.58 57 9 57 C9 51.72 9 46.44 9 41 C13.455 40.505 13.455 40.505 18 40 C8.76 30.76 -0.48 21.52 -10 12 C-8.16614077 8.33228155 -6.74937171 6.53165004 -3.875 3.75 C-3.15054687 3.04359375 -2.42609375 2.3371875 -1.6796875 1.609375 C-1.12539063 1.07828125 -0.57109375 0.5471875 0 0 Z " fill="#223C91" transform="translate(381,105)"/>
<path d="M0 0 C7 6 7 6 12 12 C2.76 21.24 -6.48 30.48 -16 40 C-13.36 40.33 -10.72 40.66 -8 41 C-8 46.28 -8 51.56 -8 57 C-19.88 57 -31.76 57 -44 57 C-44 44.79 -44 32.58 -44 20 C-38.72 20 -33.44 20 -28 20 C-27.67 22.31 -27.34 24.62 -27 27 C-18.09 18.09 -9.18 9.18 0 0 Z " fill="#223C91" transform="translate(126,105)"/>
<path d="M0 0 C1.00732399 1.93370231 2.00563288 3.87210306 3 5.8125 C3.556875 6.89144531 4.11375 7.97039062 4.6875 9.08203125 C6 12 6 12 6 15 C2.40400558 16.87034451 -1.20297147 18.71842849 -4.8125 20.5625 C-5.83666016 21.09552734 -6.86082031 21.62855469 -7.91601562 22.17773438 C-8.89892578 22.67724609 -9.88183594 23.17675781 -10.89453125 23.69140625 C-11.80050049 24.15748291 -12.70646973 24.62355957 -13.63989258 25.10375977 C-16 26 -16 26 -19 25 C-20.60546875 22.34765625 -20.60546875 22.34765625 -22.1875 19.0625 C-22.71730469 17.98097656 -23.24710938 16.89945313 -23.79296875 15.78515625 C-25 13 -25 13 -25 11 C-21.40073658 9.15692045 -17.79482969 7.32723483 -14.1875 5.5 C-12.65125977 4.71302734 -12.65125977 4.71302734 -11.08398438 3.91015625 C-10.10107422 3.41386719 -9.11816406 2.91757813 -8.10546875 2.40625 C-7.19949951 1.94541016 -6.29353027 1.48457031 -5.36010742 1.00976562 C-3 0 -3 0 0 0 Z " fill="#223B91" transform="translate(68,221)"/>
<path d="M0 0 C1.703125 2.94140625 1.703125 2.94140625 3.25 6.5625 C3.77078125 7.76003906 4.2915625 8.95757812 4.828125 10.19140625 C5.21484375 11.11824219 5.6015625 12.04507812 6 13 C2.96235911 14.6326083 -0.08078323 16.25469108 -3.125 17.875 C-3.9809375 18.33519531 -4.836875 18.79539062 -5.71875 19.26953125 C-10.07134722 21.57975593 -14.23626578 23.64116434 -19 25 C-20.03544174 23.09118566 -21.05290085 21.17260796 -22.0625 19.25 C-22.63097656 18.18265625 -23.19945312 17.1153125 -23.78515625 16.015625 C-25 13 -25 13 -24.84667969 10.97485352 C-23.67810772 8.24919647 -22.29732287 7.70388896 -19.66796875 6.38671875 C-18.78689453 5.94392578 -17.90582031 5.50113281 -16.99804688 5.04492188 C-16.07056641 4.59697266 -15.14308594 4.14902344 -14.1875 3.6875 C-13.27162109 3.22021484 -12.35574219 2.75292969 -11.41210938 2.27148438 C-3.57738961 -1.59166586 -3.57738961 -1.59166586 0 0 Z " fill="#223C91" transform="translate(82,249)"/>
<path d="M0 0 C4.02776001 0.805552 6.18909416 1.42815264 9.64453125 3.28515625 C10.90620117 3.95708008 10.90620117 3.95708008 12.19335938 4.64257812 C13.05767578 5.11115234 13.92199219 5.57972656 14.8125 6.0625 C15.69615234 6.53494141 16.57980469 7.00738281 17.49023438 7.49414062 C19.66331578 8.65703284 21.83302284 9.82578375 24 11 C23.29920108 14.84172903 22.24403589 17.83839253 20.4375 21.3125 C19.98246094 22.19550781 19.52742188 23.07851562 19.05859375 23.98828125 C18.70925781 24.65214844 18.35992187 25.31601563 18 26 C12.29676416 24.37317535 7.31986097 21.66802013 2.125 18.875 C1.24585938 18.40707031 0.36671875 17.93914062 -0.5390625 17.45703125 C-2.6949085 16.30880892 -4.8477588 15.15496508 -7 14 C-4.69 9.38 -2.38 4.76 0 0 Z " fill="#223B91" transform="translate(446,221)"/>
<path d="M0 0 C3.06454182 1.43317552 6.12625093 2.87230624 9.1875 4.3125 C10.05181641 4.71662109 10.91613281 5.12074219 11.80664062 5.53710938 C16.00025862 7.51341211 20.08696384 9.49662904 24 12 C22.53967505 17.31027254 20.01679014 21.46330032 17 26 C13.38606692 25.41584531 10.57523816 24.44519602 7.35546875 22.71484375 C6.09379883 22.04291992 6.09379883 22.04291992 4.80664062 21.35742188 C3.51016602 20.65456055 3.51016602 20.65456055 2.1875 19.9375 C1.30384766 19.46505859 0.42019531 18.99261719 -0.49023438 18.50585938 C-2.66331578 17.34296716 -4.83302284 16.17421625 -7 15 C-6.17790325 11.35684925 -4.76593738 8.51784553 -2.9375 5.25 C-2.11572266 3.77273437 -2.11572266 3.77273437 -1.27734375 2.265625 C-0.64505859 1.14414063 -0.64505859 1.14414063 0 0 Z " fill="#223B92" transform="translate(433,247)"/>
<path d="M0 0 C1.703125 2.94140625 1.703125 2.94140625 3.25 6.5625 C3.77078125 7.76003906 4.2915625 8.95757812 4.828125 10.19140625 C5.21484375 11.11824219 5.6015625 12.04507812 6 13 C2.21179916 15.00661684 -1.58111052 17.0041624 -5.375 19 C-6.45523438 19.57234375 -7.53546875 20.1446875 -8.6484375 20.734375 C-9.6796875 21.27578125 -10.7109375 21.8171875 -11.7734375 22.375 C-13.20308838 23.12910156 -13.20308838 23.12910156 -14.66162109 23.8984375 C-17 25 -17 25 -19 25 C-20.03544174 23.09118566 -21.05290085 21.17260796 -22.0625 19.25 C-22.63097656 18.18265625 -23.19945313 17.1153125 -23.78515625 16.015625 C-25 13 -25 13 -24.84667969 10.97485352 C-23.67810772 8.24919647 -22.29732287 7.70388896 -19.66796875 6.38671875 C-18.78689453 5.94392578 -17.90582031 5.50113281 -16.99804688 5.04492188 C-16.07056641 4.59697266 -15.14308594 4.14902344 -14.1875 3.6875 C-13.27162109 3.22021484 -12.35574219 2.75292969 -11.41210938 2.27148438 C-3.57738961 -1.59166586 -3.57738961 -1.59166586 0 0 Z " fill="#223C91" transform="translate(95,275)"/>
<path d="M0 0 C5.70323584 1.62682465 10.68013903 4.33197987 15.875 7.125 C16.75414062 7.59292969 17.63328125 8.06085938 18.5390625 8.54296875 C20.6949085 9.69119108 22.8477588 10.84503492 25 12 C22.69 16.62 20.38 21.24 18 26 C14.15357062 24.71785687 10.99878744 23.62257334 7.4765625 21.8359375 C6.68378906 21.43632812 5.89101563 21.03671875 5.07421875 20.625 C4.26597656 20.2125 3.45773437 19.8 2.625 19.375 C1.79355469 18.95476562 0.96210938 18.53453125 0.10546875 18.1015625 C-1.93156359 17.07133925 -3.96662189 16.03741179 -6 15 C-5.39644592 11.14974121 -4.23227397 8.13898841 -2.4375 4.6875 C-1.98246094 3.80449219 -1.52742188 2.92148437 -1.05859375 2.01171875 C-0.53458984 1.01591797 -0.53458984 1.01591797 0 0 Z " fill="#233D91" transform="translate(419,273)"/>
<path d="M0 0 C5.28 0 10.56 0 16 0 C16 5.28 16 10.56 16 16 C10.72 16 5.44 16 0 16 C0 10.72 0 5.44 0 0 Z " fill="#233D90" transform="translate(283,206)"/>
<path d="M0 0 C5.28 0 10.56 0 16 0 C16 5.28 16 10.56 16 16 C10.72 16 5.44 16 0 16 C0 10.72 0 5.44 0 0 Z " fill="#233C90" transform="translate(253,206)"/>
<path d="M0 0 C5.28 0 10.56 0 16 0 C16 5.28 16 10.56 16 16 C10.72 16 5.44 16 0 16 C0 10.72 0 5.44 0 0 Z " fill="#233D90" transform="translate(283,177)"/>
<path d="M0 0 C5.28 0 10.56 0 16 0 C16 5.28 16 10.56 16 16 C10.72 16 5.44 16 0 16 C0 10.72 0 5.44 0 0 Z " fill="#233D90" transform="translate(253,177)"/>
<path d="M0 0 C5.28 0 10.56 0 16 0 C16 5.28 16 10.56 16 16 C10.72 16 5.44 16 0 16 C0 10.72 0 5.44 0 0 Z " fill="#233D91" transform="translate(283,148)"/>
<path d="M0 0 C5.28 0 10.56 0 16 0 C16 5.28 16 10.56 16 16 C10.72 16 5.44 16 0 16 C0 10.72 0 5.44 0 0 Z " fill="#233C91" transform="translate(253,148)"/>
<path d="M0 0 C5.28 0 10.56 0 16 0 C16 5.28 16 10.56 16 16 C10.72 16 5.44 16 0 16 C0 10.72 0 5.44 0 0 Z " fill="#223D91" transform="translate(283,118)"/>
<path d="M0 0 C5.28 0 10.56 0 16 0 C16 5.28 16 10.56 16 16 C10.72 16 5.44 16 0 16 C0 10.72 0 5.44 0 0 Z " fill="#223D91" transform="translate(253,118)"/>
<path d="M0 0 C5.28 0 10.56 0 16 0 C16 5.28 16 10.56 16 16 C10.72 16 5.44 16 0 16 C0 10.72 0 5.44 0 0 Z " fill="#223D91" transform="translate(232,59)"/>
<path d="M0 0 C5.28 0 10.56 0 16 0 C16 5.28 16 10.56 16 16 C10.72 16 5.44 16 0 16 C0 10.72 0 5.44 0 0 Z " fill="#223D91" transform="translate(202,59)"/>
<path d="M0 0 C5.28 0 10.56 0 16 0 C16 4.95 16 9.9 16 15 C10.72 15 5.44 15 0 15 C0 10.05 0 5.1 0 0 Z " fill="#223D91" transform="translate(232,30)"/>
<path d="M0 0 C5.28 0 10.56 0 16 0 C16 4.95 16 9.9 16 15 C10.72 15 5.44 15 0 15 C0 10.05 0 5.1 0 0 Z " fill="#223D91" transform="translate(202,30)"/>
</svg>
