<?xml version="1.0" encoding="UTF-8"?>
<svg version="1.1" xmlns="http://www.w3.org/2000/svg" width="256" height="256">
<path d="M0 0 C5.40391514 0.76299821 8.96015111 5.66747471 12.68359375 9.37890625 C13.2559375 9.92804687 13.82828125 10.4771875 14.41796875 11.04296875 C20.69473597 17.62345051 25.09048764 26.7357274 26.77832031 35.6159668 C27.03624359 36.95681587 27.03624359 36.95681587 27.29937744 38.32475281 C27.42616882 39.00262344 27.55296021 39.68049408 27.68359375 40.37890625 C28.32743326 40.37521908 28.97127277 40.37153191 29.63462257 40.367733 C45.30898172 40.27935135 60.98325406 40.21318187 76.65780067 40.17165756 C84.23794129 40.15104236 91.81791545 40.12294189 99.39794922 40.07714844 C106.0056041 40.03724851 112.61313842 40.01146586 119.22091043 40.00255227 C122.7189345 39.99734278 126.21661371 39.98512094 129.71452713 39.95598602 C133.62176166 39.92370649 137.52866043 39.92294888 141.43603516 39.92480469 C142.59265656 39.91042358 143.74927795 39.89604248 144.94094849 39.88122559 C150.95062006 39.91215422 155.14582685 39.98242105 159.68359375 44.37890625 C163.74271359 49.84113153 163.10627393 56.0144839 163.07177734 62.53125 C163.07966278 64.36153244 163.07966278 64.36153244 163.08770752 66.22879028 C163.09862651 69.56363967 163.09609896 72.8979285 163.08657026 76.23274612 C163.0789534 79.72930889 163.08602489 83.22584837 163.09072876 86.72241211 C163.09618043 92.59330525 163.08901022 98.46408502 163.07470703 104.33496094 C163.05838156 111.1140155 163.06367049 117.89279934 163.08018625 124.67184734 C163.09381795 130.50133671 163.09571257 136.33074478 163.08787024 142.16024494 C163.08320294 145.63795214 163.08254275 149.11553226 163.09247971 152.5932312 C163.10278695 156.47111462 163.08848442 160.34869693 163.07177734 164.2265625 C163.07785004 165.37375763 163.08392273 166.52095276 163.09017944 167.70291138 C163.04537197 173.31616797 162.96221411 177.58673722 159.68359375 182.37890625 C154.53928095 187.1736249 149.68377608 186.91027983 143.03515625 186.76953125 C142.02262787 186.76387146 141.01009949 186.75821167 139.96688843 186.75238037 C136.74696698 186.73006879 133.52817635 186.67988097 130.30859375 186.62890625 C128.11980779 186.60883456 125.93100431 186.59058496 123.7421875 186.57421875 C118.38893997 186.5302213 113.03634767 186.46336143 107.68359375 186.37890625 C108.24949219 187.343125 108.81539062 188.30734375 109.3984375 189.30078125 C110.13958064 190.57667324 110.88045182 191.85272324 111.62109375 193.12890625 C111.99427734 193.763125 112.36746094 194.39734375 112.75195312 195.05078125 C116.39999796 201.36091285 116.39999796 201.36091285 116.68359375 204.37890625 C115.83239746 207.08946228 115.83239746 207.08946228 113.68359375 209.37890625 C110.5700956 210.14650055 107.49537821 210.05102058 104.30273438 210.01000977 C103.34151169 210.01716507 102.380289 210.02432037 101.38993835 210.0316925 C98.20609304 210.04862962 95.02364583 210.0291471 91.83984375 210.0078125 C89.63171268 210.00864073 87.42358166 210.01109838 85.2154541 210.01512146 C80.58501656 210.01798291 75.95506181 210.00324397 71.32470703 209.97583008 C65.38237819 209.94174717 59.44091296 209.94776248 53.49854279 209.96649265 C48.93809787 209.97704945 44.37785473 209.96813676 39.81742859 209.95310783 C37.62611998 209.94791588 35.43479039 209.94842005 33.2434845 209.95465279 C30.18334472 209.96008892 27.12445102 209.93978069 24.06445312 209.91235352 C22.6991169 209.92214233 22.6991169 209.92214233 21.30619812 209.93212891 C15.20226508 209.83886499 15.20226508 209.83886499 12.5916748 207.52378845 C11.26716953 204.39531464 11.7458934 202.62262504 12.68359375 199.37890625 C14.3125 196.16796875 14.3125 196.16796875 16.24609375 193.00390625 C16.88675781 191.94429687 17.52742188 190.8846875 18.1875 189.79296875 C18.68121094 188.99632812 19.17492187 188.1996875 19.68359375 187.37890625 C19.13315399 187.37526062 18.58271423 187.37161499 18.01559448 187.36785889 C12.27234083 187.32595948 6.5298808 187.25656238 0.78710938 187.17138672 C-1.35441134 187.14320881 -3.49603543 187.1219785 -5.63769531 187.10791016 C-8.72124032 187.086437 -11.80354643 187.03976308 -14.88671875 186.98828125 C-16.31674728 186.98643829 -16.31674728 186.98643829 -17.77566528 186.98455811 C-23.41685132 186.86102802 -26.94479886 186.30013621 -31.31640625 182.37890625 C-34.20407299 178.43533533 -34.70242004 175.60186398 -34.7487793 170.75268555 C-34.75897095 170.10821976 -34.7691626 169.46375397 -34.77966309 168.79975891 C-34.80969207 166.68412469 -34.81904294 164.56894396 -34.828125 162.453125 C-34.84497929 160.98051969 -34.86313055 159.5079287 -34.88252258 158.03535461 C-34.92994775 154.17044551 -34.9598052 150.30559448 -34.98596191 146.44049072 C-35.01580544 142.49211154 -35.06232267 138.54393231 -35.10742188 134.59570312 C-35.19336971 126.85687021 -35.26075252 119.11802262 -35.31640625 111.37890625 C-35.81140625 111.87390625 -35.81140625 111.87390625 -36.31640625 112.37890625 C-39.140625 112.73828125 -39.140625 112.73828125 -42.31640625 112.37890625 C-44.3984375 110.33203125 -44.3984375 110.33203125 -46.12890625 107.62890625 C-46.71285156 106.7471875 -47.29679687 105.86546875 -47.8984375 104.95703125 C-49.15440364 102.67345644 -50.01382008 100.95649212 -50.31640625 98.37890625 C-47.39358809 94.31237663 -42.90209991 92.14754357 -38.31640625 90.37890625 C-35.44140625 90.00390625 -35.44140625 90.00390625 -33.31640625 90.37890625 C-31.31640625 92.37890625 -31.31640625 92.37890625 -31.19140625 95.00390625 C-31.23265625 95.78765625 -31.27390625 96.57140625 -31.31640625 97.37890625 C-14.49086147 95.10626158 -1.13570147 90.51906864 9.8359375 76.66015625 C11.68359375 74.37890625 11.68359375 74.37890625 13.74609375 73.44140625 C15.68359375 73.37890625 15.68359375 73.37890625 18.68359375 75.37890625 C19.26565457 79.08761238 19.06995257 80.80418655 16.9609375 83.94140625 C14.5571593 86.44550909 12.15403915 88.94033756 9.68359375 91.37890625 C8.82507813 92.25289062 8.82507813 92.25289062 7.94921875 93.14453125 C-0.65906238 101.24142934 -13.50227765 106.37890625 -25.31640625 106.37890625 C-25.31640625 124.52890625 -25.31640625 142.67890625 -25.31640625 161.37890625 C-16.73640625 161.37890625 -8.15640625 161.37890625 0.68359375 161.37890625 C0.63138672 158.18267578 0.63138672 158.18267578 0.578125 154.921875 C0.55472461 152.85670308 0.5365109 150.79154597 0.51879883 148.72631836 C0.50371786 147.29168073 0.48324995 145.85708917 0.45727539 144.42260742 C0.42085938 142.35974766 0.40386132 140.29749767 0.390625 138.234375 C0.37491455 136.99324951 0.3592041 135.75212402 0.34301758 134.47338867 C0.68359375 131.37890625 0.68359375 131.37890625 1.90307617 129.4753418 C4.2129729 128.0529167 5.75796337 127.99130866 8.46484375 127.98046875 C9.38910156 127.97660156 10.31335938 127.97273438 11.265625 127.96875 C12.22855469 127.98035156 13.19148438 127.99195313 14.18359375 128.00390625 C15.14652344 127.99230469 16.10945313 127.98070312 17.1015625 127.96875 C18.48794922 127.97455078 18.48794922 127.97455078 19.90234375 127.98046875 C20.74732422 127.98385254 21.59230469 127.98723633 22.46289062 127.99072266 C25.17999808 128.46567877 26.031331 129.20504432 27.68359375 131.37890625 C28.78270924 134.67625271 28.79753935 137.1084937 28.78125 140.578125 C28.77641602 142.39086914 28.77641602 142.39086914 28.77148438 144.24023438 C28.75891602 146.13418945 28.75891602 146.13418945 28.74609375 148.06640625 C28.74158203 149.34064453 28.73707031 150.61488281 28.73242188 151.92773438 C28.72062248 155.07817189 28.70415972 158.22851574 28.68359375 161.37890625 C30.33359375 161.37890625 31.98359375 161.37890625 33.68359375 161.37890625 C33.6747113 160.56093567 33.66582886 159.74296509 33.65667725 158.90020752 C33.5765169 151.1902272 33.51562236 143.48044902 33.47634506 135.77016068 C33.45547323 131.80622832 33.42716376 127.84264038 33.38183594 123.87890625 C33.33836256 120.05337898 33.3144536 116.22818291 33.30408478 112.40242767 C33.29669597 110.9431512 33.2822671 109.48389279 33.26067352 108.02475739 C33.23161751 105.97997425 33.22763834 103.93655805 33.22949219 101.89160156 C33.22060974 100.7280011 33.21172729 99.56440063 33.20257568 98.36553955 C33.78496198 94.74951257 34.82274534 93.59016068 37.68359375 91.37890625 C40.79692409 90.59510319 43.91986046 90.77514699 47.12109375 90.81640625 C48.39049805 90.78063477 48.39049805 90.78063477 49.68554688 90.74414062 C50.50861328 90.74607422 51.33167969 90.74800781 52.1796875 90.75 C52.92404053 90.7492749 53.66839355 90.7485498 54.43530273 90.74780273 C57.89491916 91.71892972 59.40740065 93.65221962 61.68359375 96.37890625 C62.28486633 99.4478302 62.28486633 99.4478302 62.2512207 102.91333008 C62.25084305 104.2143013 62.25046539 105.51527252 62.25007629 106.85566711 C62.2245467 108.26576708 62.19846678 109.67585717 62.171875 111.0859375 C62.16254278 112.53609496 62.1554286 113.98626825 62.1504364 115.43644714 C62.1313981 119.24266525 62.08232681 123.04792057 62.0269165 126.85375977 C61.9756543 130.74156674 61.95290762 134.62953018 61.92773438 138.51757812 C61.87420311 146.13845849 61.78893113 153.75854717 61.68359375 161.37890625 C63.33359375 161.37890625 64.98359375 161.37890625 66.68359375 161.37890625 C66.6747113 160.76138489 66.66582886 160.14386353 66.65667725 159.50762939 C66.56822456 153.08395641 66.50786806 146.66045623 66.46386719 140.23632812 C66.44374439 137.83847019 66.41644316 135.44066137 66.38183594 133.04296875 C66.33334885 129.59753302 66.31063134 126.15274573 66.29296875 122.70703125 C66.27232361 121.63398743 66.25167847 120.5609436 66.23040771 119.4553833 C66.22995453 117.95428009 66.22995453 117.95428009 66.22949219 116.42285156 C66.22060974 115.54348938 66.21172729 114.6641272 66.20257568 113.75811768 C66.84348475 110.58805342 68.21069454 109.39059042 70.68359375 107.37890625 C72.91015625 106.86132812 72.91015625 106.86132812 75.30859375 106.84765625 C76.18 106.8425 77.05140625 106.83734375 77.94921875 106.83203125 C79.30273438 106.85523438 79.30273438 106.85523438 80.68359375 106.87890625 C81.5859375 106.8634375 82.48828125 106.84796875 83.41796875 106.83203125 C84.289375 106.8371875 85.16078125 106.84234375 86.05859375 106.84765625 C86.85007813 106.85216797 87.6415625 106.85667969 88.45703125 106.86132812 C91.54642067 107.57947567 92.67835105 108.95581018 94.68359375 111.37890625 C95.16461182 113.75811768 95.16461182 113.75811768 95.13769531 116.42285156 C95.13739319 117.42358704 95.13709106 118.42432251 95.13677979 119.4553833 C95.11613464 120.52842712 95.0954895 121.60147095 95.07421875 122.70703125 C95.06855896 123.81117371 95.06289917 124.91531616 95.05706787 126.05291748 C95.03468143 129.57868851 94.98447871 133.10344249 94.93359375 136.62890625 C94.91353178 139.01951657 94.89528049 141.41014283 94.87890625 143.80078125 C94.83480918 149.66050312 94.76787373 155.51963203 94.68359375 161.37890625 C96.33359375 161.37890625 97.98359375 161.37890625 99.68359375 161.37890625 C99.66693916 159.8921917 99.66693916 159.8921917 99.64994812 158.3754425 C99.54856556 149.03235052 99.47362532 139.68937021 99.42453289 130.34585285 C99.39844521 125.5422656 99.36306242 120.73912259 99.30639648 115.93579102 C99.25204693 111.29976731 99.22216698 106.66417073 99.20920753 102.02785301 C99.19997291 100.25957706 99.18193946 98.49132435 99.15494347 96.72323036 C99.11861264 94.24506859 99.11364988 91.76866868 99.1159668 89.2902832 C99.08900223 88.19515915 99.08900223 88.19515915 99.06149292 87.07791138 C99.10130079 83.13955733 99.56784592 81.52147593 102.08428955 78.42190552 C104.73478439 76.33867147 105.68450613 75.7574075 108.96875 75.8203125 C109.74669922 75.82740234 110.52464844 75.83449219 111.32617188 75.84179688 C112.5240332 75.89110352 112.5240332 75.89110352 113.74609375 75.94140625 C114.54853516 75.94720703 115.35097656 75.95300781 116.17773438 75.95898438 C120.22990119 76.04305423 123.14926459 76.21906502 126.68359375 78.37890625 C128.21994226 81.45160327 127.813272 84.67091743 127.79711914 88.04150391 C127.79726517 88.83183517 127.79741119 89.62216644 127.79756165 90.43644714 C127.79686358 93.05531536 127.78907614 95.67411292 127.78125 98.29296875 C127.77938544 100.10614991 127.77796172 101.91933158 127.77696228 103.73251343 C127.77314007 108.50994248 127.7633123 113.28734124 127.7522583 118.0647583 C127.74203782 122.93769928 127.73746329 127.81064515 127.73242188 132.68359375 C127.72168978 142.24871338 127.70409536 151.81380256 127.68359375 161.37890625 C136.26359375 161.37890625 144.84359375 161.37890625 153.68359375 161.37890625 C153.35359375 124.74890625 153.02359375 88.11890625 152.68359375 50.37890625 C111.43359375 50.04890625 70.18359375 49.71890625 27.68359375 49.37890625 C27.68359375 51.02890625 27.68359375 52.67890625 27.68359375 54.37890625 C28.85921875 54.31703125 28.85921875 54.31703125 30.05859375 54.25390625 C32.68359375 54.37890625 32.68359375 54.37890625 34.68359375 56.37890625 C34.58267601 60.10277092 34.23268122 61.82778513 31.57421875 64.49609375 C30.7028125 65.07617188 29.83140625 65.65625 28.93359375 66.25390625 C27.64195313 67.14722656 27.64195313 67.14722656 26.32421875 68.05859375 C23.42673907 69.50733359 21.86869178 69.95849838 18.68359375 69.37890625 C17.171875 67.8046875 17.171875 67.8046875 15.99609375 65.69140625 C15.58746094 64.95921875 15.17882812 64.22703125 14.7578125 63.47265625 C12.41762572 58.91141948 11.23011526 56.46608096 12.68359375 51.37890625 C14.33359375 51.04890625 15.98359375 50.71890625 17.68359375 50.37890625 C18.39383694 38.0154136 14.83370212 26.57815075 6.69140625 17.046875 C3.83547631 14.14244814 0.97757492 11.59326752 -2.31640625 9.19140625 C-4.31640625 7.37890625 -4.31640625 7.37890625 -4.75390625 4.75390625 C-4.1577708 1.51774236 -3.26395299 0.53390125 0 0 Z M24.90872192 196.48583984 C23.61860253 199.00874936 23.61860253 199.00874936 23.68359375 200.37890625 C50.41359375 200.37890625 77.14359375 200.37890625 104.68359375 200.37890625 C100.8874293 193.25570077 100.8874293 193.25570077 96.68359375 186.37890625 C93.9166757 185.84887935 93.9166757 185.84887935 90.61669922 185.83203125 C89.34132294 185.79029785 88.06594666 185.74856445 86.75192261 185.70556641 C85.35158555 185.67773618 83.95120042 185.65224159 82.55078125 185.62890625 C81.84548405 185.61543152 81.14018684 185.60195679 80.413517 185.58807373 C76.67611844 185.51959616 72.93904181 185.47164279 69.20117188 185.43847656 C65.35199591 185.39979545 61.50885554 185.28639092 57.66186333 185.15576172 C54.69334065 185.06945809 51.72622959 185.04149077 48.75656509 185.02868652 C47.33929045 185.01230024 45.92208285 184.97399608 44.50603867 184.91271973 C33.57475288 184.46837747 29.53275221 187.05849728 24.90872192 196.48583984 Z " fill="#224FFE" transform="translate(93.31640625,30.62109375)"/>
<path d="M0 0 C0.73734375 0.00773437 1.4746875 0.01546875 2.234375 0.0234375 C3.34039062 0.01183594 3.34039062 0.01183594 4.46875 0 C9.9810554 0.0201179 9.9810554 0.0201179 12.234375 2.2734375 C12.359375 4.8984375 12.359375 4.8984375 12.234375 7.2734375 C15.13510681 7.95144784 15.13510681 7.95144784 18.234375 8.2734375 C18.894375 7.6134375 19.554375 6.9534375 20.234375 6.2734375 C22.52734375 5.859375 22.52734375 5.859375 25.234375 6.2734375 C27.91015625 8.25 27.91015625 8.25 30.546875 10.8984375 C31.42988281 11.75695313 32.31289062 12.61546875 33.22265625 13.5 C35.59204318 16.76653344 35.69103692 18.32853877 35.234375 22.2734375 C34.9281316 23.61325236 34.59985945 24.94855637 34.234375 26.2734375 C34.234375 27.2634375 34.234375 28.2534375 34.234375 29.2734375 C35.018125 29.2321875 35.801875 29.1909375 36.609375 29.1484375 C39.234375 29.2734375 39.234375 29.2734375 41.234375 31.2734375 C41.43294472 34.14685811 41.51266446 36.90205738 41.484375 39.7734375 C41.49597656 40.95099609 41.49597656 40.95099609 41.5078125 42.15234375 C41.48768287 48.02012963 41.48768287 48.02012963 39.234375 50.2734375 C36.609375 50.3984375 36.609375 50.3984375 34.234375 50.2734375 C34.19183144 52.27298496 34.19356717 54.27385386 34.234375 56.2734375 C34.564375 56.6034375 34.894375 56.9334375 35.234375 57.2734375 C35.74568906 61.19538492 35.57682013 62.80132868 33.22265625 66.046875 C32.33964844 66.90539062 31.45664063 67.76390625 30.546875 68.6484375 C29.67675781 69.52242188 28.80664062 70.39640625 27.91015625 71.296875 C25.234375 73.2734375 25.234375 73.2734375 22.58984375 73.6875 C20.234375 73.2734375 20.234375 73.2734375 17.234375 71.2734375 C14.58805213 71.5856139 14.58805213 71.5856139 12.234375 72.2734375 C12.275625 73.0571875 12.316875 73.8409375 12.359375 74.6484375 C12.234375 77.2734375 12.234375 77.2734375 10.234375 79.2734375 C7.52805806 79.4454986 4.9372356 79.50582767 2.234375 79.4609375 C1.49703125 79.46029297 0.7596875 79.45964844 0 79.45898438 C-5.48460691 79.41394654 -5.48460691 79.41394654 -7.765625 78.2734375 C-7.765625 76.2934375 -7.765625 74.3134375 -7.765625 72.2734375 C-10.62340533 71.58850377 -10.62340533 71.58850377 -13.765625 71.2734375 C-15.250625 72.2634375 -15.250625 72.2634375 -16.765625 73.2734375 C-21.26203416 73.06002364 -23.44848156 71.18444021 -26.578125 68.0859375 C-27.36832031 67.32925781 -28.15851562 66.57257813 -28.97265625 65.79296875 C-31.17895165 62.692619 -31.15539234 61.00186978 -30.765625 57.2734375 C-30.43229167 55.94010417 -30.09895833 54.60677083 -29.765625 53.2734375 C-30.095625 52.6134375 -30.425625 51.9534375 -30.765625 51.2734375 C-31.755625 50.9434375 -32.745625 50.6134375 -33.765625 50.2734375 C-34.755625 49.9434375 -35.745625 49.6134375 -36.765625 49.2734375 C-38.27491883 46.25484984 -37.99072573 43.14442796 -38.015625 39.8359375 C-38.03625 39.15466797 -38.056875 38.47339844 -38.078125 37.77148438 C-38.11734799 32.76565041 -38.11734799 32.76565041 -36.38671875 30.34375 C-34.53597488 29.12181309 -32.94189746 28.64865689 -30.765625 28.2734375 C-30.38343733 26.61729093 -30.05167398 24.94886726 -29.765625 23.2734375 C-30.095625 22.9434375 -30.425625 22.6134375 -30.765625 22.2734375 C-31.27040935 18.36416312 -31.08749039 16.73079168 -28.7890625 13.46484375 C-27.91507813 12.59730469 -27.04109375 11.72976562 -26.140625 10.8359375 C-25.28210937 9.95035156 -24.42359375 9.06476562 -23.5390625 8.15234375 C-20.765625 6.2734375 -20.765625 6.2734375 -17.5546875 6.42578125 C-14.765625 7.2734375 -14.765625 7.2734375 -12.765625 8.2734375 C-11.08907771 7.99401295 -9.41954346 7.66515503 -7.765625 7.2734375 C-7.806875 6.4896875 -7.848125 5.7059375 -7.890625 4.8984375 C-7.64027051 -0.35900678 -4.5039743 0.01643786 0 0 Z M-7.765625 31.2734375 C-10.17505967 34.69328026 -11.01281611 37.22478806 -10.703125 41.3359375 C-9.89003172 45.95819601 -7.76425343 48.77446618 -4.015625 51.5859375 C1.0690321 53.13958273 4.86989049 52.94280726 9.546875 50.6484375 C12.61349243 47.93840349 13.96160912 46.16660372 15.234375 42.2734375 C15.43675462 37.98130306 14.71867221 35.04163307 12.421875 31.3984375 C8.95095465 28.02668631 7.25170317 27.37188861 2.359375 26.8984375 C-1.98479937 27.02787286 -4.47490049 28.36535537 -7.765625 31.2734375 Z " fill="#234FFE" transform="translate(61.765625,39.7265625)"/>
<path d="M0 0 C1.83304688 0.02126953 1.83304688 0.02126953 3.703125 0.04296875 C4.91484375 0.04941406 6.1265625 0.05585937 7.375 0.0625 C10.67342127 0.21733855 13.73852359 0.47494117 16.953125 1.23046875 C19.42582542 6.17586959 17.3933242 14.22025736 15.953125 19.41796875 C14.953125 22.23046875 14.953125 22.23046875 13.953125 23.23046875 C11.95354136 23.27127658 9.95267246 23.27301231 7.953125 23.23046875 C6.963125 21.25046875 6.963125 21.25046875 5.953125 19.23046875 C0.35345122 24.02549626 0.35345122 24.02549626 -4.921875 29.16796875 C-7.046875 31.23046875 -7.046875 31.23046875 -9.046875 31.23046875 C-8.551875 32.22046875 -8.551875 32.22046875 -8.046875 33.23046875 C-7.66849469 38.24400786 -7.91551861 41.2352899 -11.046875 45.23046875 C-13.32426965 47.78391124 -14.99015562 49.03962311 -18.3828125 49.65234375 C-22.76197781 49.88905539 -26.03233442 49.7696496 -29.546875 46.98046875 C-33.8627033 42.23305762 -34.29566246 39.69894263 -34.046875 33.23046875 C-34.7275 33.00359375 -35.408125 32.77671875 -36.109375 32.54296875 C-38.79209914 31.34430477 -39.99443127 30.38288137 -42.109375 28.48046875 C-45.43119146 26.07776055 -47.86074973 25.87957101 -51.921875 26.23046875 C-59.64990912 27.93603239 -62.74922765 33.00245485 -67.046875 39.23046875 C-68.20123047 40.59171875 -68.20123047 40.59171875 -69.37890625 41.98046875 C-74.39143584 48.02008408 -75.65112502 51.75127116 -75.07421875 59.5546875 C-75.03232993 63.65380821 -76.31429717 65.26366996 -79.046875 68.23046875 C-83.30340362 71.06815449 -87.04969666 70.86774499 -92.046875 70.23046875 C-96.1847969 68.1615078 -98.31929995 66.47936954 -100.046875 62.23046875 C-100.78339086 57.52019287 -100.46934133 54.06031333 -98.296875 49.79296875 C-95.6238681 46.74871089 -93.75964359 45.37225423 -89.6875 45.03515625 C-88.89859375 45.05835938 -88.1096875 45.0815625 -87.296875 45.10546875 C-86.09804687 45.13253906 -86.09804687 45.13253906 -84.875 45.16015625 C-84.27171875 45.18335938 -83.6684375 45.2065625 -83.046875 45.23046875 C-82.81742188 44.70324219 -82.58796875 44.17601562 -82.3515625 43.6328125 C-80.61409945 40.43359161 -78.41097187 37.64895966 -76.171875 34.79296875 C-75.73746094 34.23287109 -75.30304688 33.67277344 -74.85546875 33.09570312 C-74.21158203 32.2671582 -74.21158203 32.2671582 -73.5546875 31.421875 C-73.13477539 30.87748779 -72.71486328 30.33310059 -72.28222656 29.7722168 C-71.15897642 28.37037398 -69.94652195 27.04119829 -68.7265625 25.72265625 C-66.55231509 22.49667986 -66.75765893 20.62960073 -67.046875 16.79296875 C-67.27421709 9.61545415 -67.27421709 9.61545415 -65.296875 6.54296875 C-61.87172603 3.02267676 -59.06462255 1.92252749 -54.171875 1.79296875 C-50.74968892 1.88382325 -48.35932037 2.1590792 -45.546875 4.16796875 C-42.71827721 7.63300105 -42.25568397 9.86959323 -41.51171875 14.15625 C-40.62236057 18.12473061 -38.16147892 19.51768762 -34.890625 21.609375 C-31.55932281 23.60113809 -31.55932281 23.60113809 -28.046875 25.23046875 C-27.056875 24.90046875 -26.066875 24.57046875 -25.046875 24.23046875 C-23.56762111 24.43818182 -22.08846598 24.64659876 -20.609375 24.85546875 C-15.97382024 24.95772363 -13.64449154 23.50839048 -10.20483398 20.44482422 C-7.75178034 18.09725 -5.38695012 15.69164365 -3.046875 13.23046875 C-2.04898693 12.22836128 -1.05027056 11.22706162 -0.046875 10.23046875 C-1.0059375 9.92109375 -1.0059375 9.92109375 -1.984375 9.60546875 C-4.046875 8.23046875 -4.046875 8.23046875 -4.921875 5.23046875 C-4.963125 4.24046875 -5.004375 3.25046875 -5.046875 2.23046875 C-3.046875 0.23046875 -3.046875 0.23046875 0 0 Z M-56.046875 11.23046875 C-56.706875 11.89046875 -57.366875 12.55046875 -58.046875 13.23046875 C-57.7283573 15.33867672 -57.7283573 15.33867672 -57.046875 17.23046875 C-55.396875 17.56046875 -53.746875 17.89046875 -52.046875 18.23046875 C-51.386875 16.91046875 -50.726875 15.59046875 -50.046875 14.23046875 C-50.706875 13.24046875 -51.366875 12.25046875 -52.046875 11.23046875 C-53.366875 11.23046875 -54.686875 11.23046875 -56.046875 11.23046875 Z M-23.046875 33.23046875 C-23.706875 33.89046875 -24.366875 34.55046875 -25.046875 35.23046875 C-24.7283573 37.33867672 -24.7283573 37.33867672 -24.046875 39.23046875 C-21.64968068 39.91005478 -21.64968068 39.91005478 -19.046875 40.23046875 C-18.386875 39.57046875 -17.726875 38.91046875 -17.046875 38.23046875 C-17.3653927 36.12226078 -17.3653927 36.12226078 -18.046875 34.23046875 C-20.44406932 33.55088272 -20.44406932 33.55088272 -23.046875 33.23046875 Z M-89.046875 54.23046875 C-89.706875 54.89046875 -90.366875 55.55046875 -91.046875 56.23046875 C-90.72646103 58.83327443 -90.72646103 58.83327443 -90.046875 61.23046875 C-88.38075595 61.27318975 -86.71304615 61.27110707 -85.046875 61.23046875 C-83.75053879 60.1640176 -83.75053879 60.1640176 -83.984375 57.66796875 C-84.005 56.86359375 -84.025625 56.05921875 -84.046875 55.23046875 C-86.44406932 54.55088272 -86.44406932 54.55088272 -89.046875 54.23046875 Z " fill="#214DFF" transform="translate(195.046875,82.76953125)"/>
<path d="M0 0 C1.32 0 2.64 0 4 0 C4.10054687 1.16789062 4.10054687 1.16789062 4.203125 2.359375 C4.73100513 5.15279033 4.73100513 5.15279033 7.109375 6.328125 C7.98078125 6.63234375 8.8521875 6.9365625 9.75 7.25 C10.61109375 7.56453125 11.4721875 7.8790625 12.359375 8.203125 C16.55895856 9.47045495 19.75415975 10.41528008 24 9 C24 10.32 24 11.64 24 13 C24.50120955 17.41064406 25.72473688 21.18164704 27.37890625 25.265625 C28 27 28 27 28 29 C29.65 29.33 31.3 29.66 33 30 C33 30.99 33 31.98 33 33 C30.525 33.495 30.525 33.495 28 34 C25.89619025 40.69514297 24 46.92292359 24 54 C21 54 21 54 19.0625 53.3828125 C16.3833049 52.88553765 15.34265357 53.54810637 13 54.875 C10.33492353 56.36369506 7.99515767 57.37155174 5 58 C4.67 59.65 4.34 61.3 4 63 C2.68 63 1.36 63 0 63 C-0.144375 62.2575 -0.28875 61.515 -0.4375 60.75 C-3.20572006 55.87793269 -8.63549403 54.6830795 -13.8125 53.1875 C-16.129303 52.98891689 -17.80315094 53.26771698 -20 54 C-20 52.68 -20 51.36 -20 50 C-20.49465347 44.68247522 -22.14591142 39.53029934 -25 35 C-27.03884109 33.71603155 -27.03884109 33.71603155 -29 33 C-29 32.01 -29 31.02 -29 30 C-28.2575 29.649375 -27.515 29.29875 -26.75 28.9375 C-22.53256784 25.96612734 -21.23239051 21.91471397 -20 17 C-19.97254888 14.41044467 -20.34007153 12.52972581 -21 10 C-18.73390187 9.27161132 -17.41923905 8.87007054 -15.109375 9.5859375 C-12.40605672 10.11658887 -11.38230391 9.50428126 -9 8.1875 C-8.34 7.83042969 -7.68 7.47335938 -7 7.10546875 C-6.34 6.74066406 -5.68 6.37585937 -5 6 C-4.27296875 5.66871094 -3.5459375 5.33742188 -2.796875 4.99609375 C-0.78548031 4.14080162 -0.78548031 4.14080162 -0.25 1.875 C-0.1675 1.25625 -0.085 0.6375 0 0 Z M-8 23 C-10.40943467 26.41984276 -11.24719111 28.95135056 -10.9375 33.0625 C-10.12440672 37.68475851 -7.99862843 40.50102868 -4.25 43.3125 C0.8346571 44.86614523 4.63551549 44.66936976 9.3125 42.375 C12.37911743 39.66496599 13.72723412 37.89316622 15 34 C15.20237962 29.70786556 14.48429721 26.76819557 12.1875 23.125 C8.71657965 19.75324881 7.01732817 19.09845111 2.125 18.625 C-2.21917437 18.75443536 -4.70927549 20.09191787 -8 23 Z " fill="#2450FE" transform="translate(62,48)"/>
<path d="M0 0 C59.07 0 118.14 0 179 0 C178.67 2.31 178.34 4.62 178 7 C175.06969598 8.46515201 172.48515381 8.12939362 169.21192932 8.13371277 C168.15285926 8.1371111 168.15285926 8.1371111 167.07239383 8.14057809 C164.69481191 8.14693331 162.31728677 8.14608776 159.93969727 8.14526367 C158.23985724 8.1482542 156.54001789 8.15165648 154.84017944 8.15544128 C150.2142073 8.16429597 145.58825364 8.16662 140.96227384 8.16725707 C137.10522481 8.16820497 133.24818013 8.17188186 129.39113277 8.17542917 C120.29420022 8.1835792 111.19727758 8.18601289 102.1003418 8.18530273 C92.70499998 8.18470169 83.30971553 8.1952575 73.91438824 8.2110464 C65.85746475 8.22410543 57.80056005 8.22948733 49.74362606 8.22884732 C44.92738165 8.22859187 40.1111882 8.2314693 35.2949543 8.24202538 C30.76666602 8.25167894 26.23847772 8.25180447 21.710186 8.24450874 C20.04567126 8.2434595 18.38115037 8.24584583 16.71664619 8.2518692 C14.44932987 8.25954428 12.18236269 8.25497441 9.91505432 8.24723816 C8.64465585 8.24778293 7.37425737 8.24832769 6.06536198 8.24888897 C3 8 3 8 0 6 C0 4.02 0 2.04 0 0 Z " fill="#91C2FE" transform="translate(68,201)"/>
<path d="M0 0 C1.32 0 2.64 0 4 0 C4.10054687 1.16789062 4.10054687 1.16789062 4.203125 2.359375 C4.73100513 5.15279033 4.73100513 5.15279033 7.109375 6.328125 C7.98078125 6.63234375 8.8521875 6.9365625 9.75 7.25 C10.61109375 7.56453125 11.4721875 7.8790625 12.359375 8.203125 C16.55895856 9.47045495 19.75415975 10.41528008 24 9 C24 10.32 24 11.64 24 13 C24.50120955 17.41064406 25.72473688 21.18164704 27.37890625 25.265625 C28 27 28 27 28 29 C29.65 29.33 31.3 29.66 33 30 C33 30.99 33 31.98 33 33 C30.525 33.495 30.525 33.495 28 34 C25.89619025 40.69514297 24 46.92292359 24 54 C21 54 21 54 19.0625 53.3828125 C16.3833049 52.88553765 15.34265357 53.54810637 13 54.875 C10.33492353 56.36369506 7.99515767 57.37155174 5 58 C4.67 59.65 4.34 61.3 4 63 C2.68 63 1.36 63 0 63 C-0.144375 62.2575 -0.28875 61.515 -0.4375 60.75 C-3.20572006 55.87793269 -8.63549403 54.6830795 -13.8125 53.1875 C-16.129303 52.98891689 -17.80315094 53.26771698 -20 54 C-20 52.68 -20 51.36 -20 50 C-20.49465347 44.68247522 -22.14591142 39.53029934 -25 35 C-27.03884109 33.71603155 -27.03884109 33.71603155 -29 33 C-29 32.01 -29 31.02 -29 30 C-28.2575 29.649375 -27.515 29.29875 -26.75 28.9375 C-22.53256784 25.96612734 -21.23239051 21.91471397 -20 17 C-19.97254888 14.41044467 -20.34007153 12.52972581 -21 10 C-18.73390187 9.27161132 -17.41923905 8.87007054 -15.109375 9.5859375 C-12.40605672 10.11658887 -11.38230391 9.50428126 -9 8.1875 C-8.34 7.83042969 -7.68 7.47335938 -7 7.10546875 C-6.34 6.74066406 -5.68 6.37585937 -5 6 C-4.27296875 5.66871094 -3.5459375 5.33742188 -2.796875 4.99609375 C-0.78548031 4.14080162 -0.78548031 4.14080162 -0.25 1.875 C-0.1675 1.25625 -0.085 0.6375 0 0 Z M-15.7734375 19.21875 C-19.71174456 24.9380749 -19.6920889 30.18423844 -19 37 C-17.00230033 44.20128864 -11.94219318 48.65599325 -5.6875 52.375 C0.9918881 53.92834607 7.14700588 53.77138937 13.1796875 50.33984375 C17.4700278 47.18193233 21.0251059 42.96851186 23 38 C23.89673946 30.86384177 23.89877975 24.54878983 19.4921875 18.6484375 C15.31195248 14.03048154 11.12090871 10.46422715 4.74609375 9.74609375 C-4.36910341 9.31468747 -10.06613639 12.20418998 -15.7734375 19.21875 Z " fill="#8BBCFE" transform="translate(62,48)"/>
<path d="M0 0 C3.63 0 7.26 0 11 0 C11 25.41 11 50.82 11 77 C7.37 77 3.74 77 0 77 C0 51.59 0 26.18 0 0 Z " fill="#8EBFFE" transform="translate(202,116)"/>
<path d="M0 0 C3.48536934 3.20653979 5.62313312 8.51717759 7 13 C6.5625 15.9375 6.5625 15.9375 5 18 C3.35369082 18.71546369 1.68754093 19.38809491 0 20 C1.95265528 37.83082588 6.98600474 48.53419159 21.05859375 59.859375 C23 62 23 62 23.41015625 64.640625 C23 67 23 67 21 69 C17.88099651 69.44557193 16.35939424 69.20461434 13.60546875 67.63671875 C2.08668941 58.35098225 -5.60804962 46.46121702 -9 32 C-9.2176321 29.01349101 -9.19166487 26.05472721 -9.125 23.0625 C-9.11597656 22.28326172 -9.10695313 21.50402344 -9.09765625 20.70117188 C-9.07433691 18.80064553 -9.03847586 16.90027992 -9 15 C-9.78375 15.04125 -10.5675 15.0825 -11.375 15.125 C-14 15 -14 15 -16 13 C-16.44921875 10.64453125 -16.44921875 10.64453125 -16 8 C-13.76953125 5.76171875 -13.76953125 5.76171875 -10.8125 3.6875 C-9.84957031 2.99011719 -8.88664063 2.29273438 -7.89453125 1.57421875 C-4.88027692 -0.06511255 -3.36217994 -0.48199083 0 0 Z " fill="#214DFF" transform="translate(16,59)"/>
<path d="M0 0 C3.1796875 0.3515625 3.1796875 0.3515625 5.296875 2.328125 C6.16699219 3.63910156 6.16699219 3.63910156 7.0546875 4.9765625 C7.94800781 6.26433594 7.94800781 6.26433594 8.859375 7.578125 C10.3630401 10.73671144 10.43305988 12.89556329 10.1796875 16.3515625 C8.45812654 17.36460012 6.72706944 18.36151098 4.9921875 19.3515625 C4.02925781 19.9084375 3.06632812 20.4653125 2.07421875 21.0390625 C-0.90067932 22.38800413 -2.6058233 22.79570609 -5.8203125 22.3515625 C-7.8203125 20.3515625 -7.8203125 20.3515625 -7.9453125 17.7265625 C-7.9040625 16.9428125 -7.8628125 16.1590625 -7.8203125 15.3515625 C-24.1431593 17.42650065 -36.57130617 21.60109981 -47.8203125 34.3515625 C-48.8327542 35.38071904 -49.85200664 36.40330008 -50.8828125 37.4140625 C-51.5221875 38.0534375 -52.1615625 38.6928125 -52.8203125 39.3515625 C-57.47571791 37.91913007 -57.47571791 37.91913007 -58.8828125 35.6015625 C-58.73172194 30.16230217 -53.39358053 25.21968761 -49.8203125 21.3515625 C-38.50168578 11.87007189 -25.40104758 6.12288767 -10.4453125 6.2890625 C-8.85589844 6.30259766 -8.85589844 6.30259766 -7.234375 6.31640625 C-6.43773437 6.32800781 -5.64109375 6.33960938 -4.8203125 6.3515625 C-4.6759375 5.5471875 -4.5315625 4.7428125 -4.3828125 3.9140625 C-3.62275762 0.45159029 -3.62275762 0.45159029 0 0 Z " fill="#214DFF" transform="translate(73.8203125,15.6484375)"/>
<path d="M0 0 C3.63 0 7.26 0 11 0 C11 20.46 11 40.92 11 62 C7.37 62 3.74 62 0 62 C0 41.54 0 21.08 0 0 Z " fill="#8EBFFE" transform="translate(135,131)"/>
<path d="M0 0 C3.96 0 7.92 0 12 0 C12 15.51 12 31.02 12 47 C8.04 47 4.08 47 0 47 C0 31.49 0 15.98 0 0 Z " fill="#87B7FE" transform="translate(168,146)"/>
<path d="M0 0 C3.63 0 7.26 0 11 0 C11 8.58 11 17.16 11 26 C7.37 26 3.74 26 0 26 C0 17.42 0 8.84 0 0 Z " fill="#8EBFFE" transform="translate(102,167)"/>
</svg>
