<?xml version="1.0" encoding="UTF-8"?>
<svg version="1.1" xmlns="http://www.w3.org/2000/svg" width="612" height="612">
<path d="M0 0 C201.96 0 403.92 0 612 0 C612 201.96 612 403.92 612 612 C410.04 612 208.08 612 0 612 C0 410.04 0 208.08 0 0 Z " fill="#FEFEFE" transform="translate(0,0)"/>
<path d="M0 0 C2.01822917 0.06510417 4.03645833 0.13020833 6.0546875 0.1953125 C6.0546875 0.8553125 6.0546875 1.5153125 6.0546875 2.1953125 C6.7146875 2.1953125 7.3746875 2.1953125 8.0546875 2.1953125 C10.79844421 5.15012742 11.0546875 5.97003158 11.0546875 10.1953125 C11.7146875 10.1953125 12.3746875 10.1953125 13.0546875 10.1953125 C13.69083984 11.39414063 13.69083984 11.39414063 14.33984375 12.6171875 C17.97136252 19.41730616 21.7147353 26.11548214 25.671875 32.734375 C27.0546875 35.1953125 27.0546875 35.1953125 28.0546875 38.1953125 C28.7146875 38.1953125 29.3746875 38.1953125 30.0546875 38.1953125 C30.0546875 38.8553125 30.0546875 39.5153125 30.0546875 40.1953125 C41.40206869 42.75993527 52.76989743 45.20207224 64.16796875 47.53198242 C65.64136719 47.83519409 65.64136719 47.83519409 67.14453125 48.14453125 C68.01972412 48.32330811 68.89491699 48.50208496 69.79663086 48.6862793 C74.80071117 49.814348 74.80071117 49.814348 77.0546875 53.1953125 C77.96793182 58.09362295 77.96793182 58.09362295 77.0546875 61.1953125 C75.05233091 63.48561859 72.88195251 65.28353516 70.5078125 67.18359375 C66.02421113 70.86043245 62.46362944 75.37197587 58.9296875 79.9453125 C57.0546875 82.1953125 57.0546875 82.1953125 54.5546875 84.1328125 C51.05019131 87.02402185 48.32718064 89.78220578 47.79589844 94.48706055 C47.81359242 97.19866371 47.96771046 99.86696537 48.1796875 102.5703125 C48.23954834 103.5411377 48.29940918 104.51196289 48.36108398 105.51220703 C48.83410483 112.61161263 49.61120179 119.65029232 50.65234375 126.6875 C51.22170467 131.65144276 51.65561912 136.39251765 50.0546875 141.1953125 C48.0546875 143.1953125 48.0546875 143.1953125 44.3671875 143.7578125 C40.35766452 143.51503404 37.42464124 142.15346854 33.953125 140.21875 C31.4257191 138.856239 28.79804676 138.01832028 26.0546875 137.1953125 C26.0546875 136.5353125 26.0546875 135.8753125 26.0546875 135.1953125 C25.44882812 135.03675781 24.84296875 134.87820313 24.21875 134.71484375 C19.47265365 133.39323846 15.26026974 131.87483882 10.9296875 129.5078125 C6.16690643 127.05583472 3.39073711 126.4330197 -1.9453125 127.1953125 C-4.36531247 128.11665236 -6.6580907 129.14448086 -8.96484375 130.3203125 C-10.9453125 131.1953125 -10.9453125 131.1953125 -13.9453125 131.1953125 C-13.9453125 131.8553125 -13.9453125 132.5153125 -13.9453125 133.1953125 C-14.95851563 133.58203125 -15.97171875 133.96875 -17.015625 134.3671875 C-18.36733417 134.89285218 -19.7188885 135.41891513 -21.0703125 135.9453125 C-21.73546875 136.19796875 -22.400625 136.450625 -23.0859375 136.7109375 C-26.44826423 138.029497 -29.13934209 139.32892995 -32.14453125 141.3984375 C-35.11361804 143.30329095 -36.21409441 143.67262044 -39.6328125 143.1953125 C-40.37917969 143.1128125 -41.12554687 143.0303125 -41.89453125 142.9453125 C-44.7419088 141.90398585 -45.56296444 140.89354957 -46.9453125 138.1953125 C-47.08984375 134.97265625 -47.08984375 134.97265625 -46.7578125 131.1328125 C-46.70246338 130.43889404 -46.64711426 129.74497559 -46.59008789 129.0300293 C-46.06211822 122.70631284 -45.3215313 116.40149115 -44.61108398 110.09619141 C-43.89247367 103.43446098 -43.7287131 96.89786074 -43.9453125 90.1953125 C-45.2653125 89.5353125 -46.5853125 88.8753125 -47.9453125 88.1953125 C-47.9453125 87.5353125 -47.9453125 86.8753125 -47.9453125 86.1953125 C-48.6053125 86.1953125 -49.2653125 86.1953125 -49.9453125 86.1953125 C-50.2753125 85.2053125 -50.6053125 84.2153125 -50.9453125 83.1953125 C-51.6053125 82.8653125 -52.2653125 82.5353125 -52.9453125 82.1953125 C-52.9453125 81.5353125 -52.9453125 80.8753125 -52.9453125 80.1953125 C-53.51378906 79.97488281 -54.08226562 79.75445312 -54.66796875 79.52734375 C-57.65248647 77.78168244 -59.25900451 75.60290627 -61.3828125 72.8828125 C-64.37867516 69.06373888 -67.48716852 65.60061557 -70.9453125 62.1953125 C-72.81586886 59.55952854 -72.94974396 58.41245399 -72.8828125 55.1328125 C-71.9453125 52.1953125 -71.9453125 52.1953125 -69.859375 50.6328125 C-66.45085154 48.9513961 -63.07148275 48.05949153 -59.3828125 47.2578125 C-58.65481445 47.091604 -57.92681641 46.92539551 -57.17675781 46.75415039 C-52.98444497 45.81225148 -48.77935573 44.96056531 -44.55859375 44.15625 C-43.665354 43.98472412 -42.77211426 43.81319824 -41.85180664 43.63647461 C-40.11455539 43.30709777 -38.37547377 42.98719714 -36.63452148 42.67797852 C-32.18807572 41.84261825 -28.6348951 40.985874 -24.9453125 38.1953125 C-23.61737644 36.12830595 -23.61737644 36.12830595 -22.9453125 34.1953125 C-22.2853125 34.1953125 -21.6253125 34.1953125 -20.9453125 34.1953125 C-20.8421875 33.6178125 -20.7390625 33.0403125 -20.6328125 32.4453125 C-19.9453125 30.1953125 -19.9453125 30.1953125 -18.5078125 28.3203125 C-16.6201111 25.7530386 -15.84310379 23.23399071 -14.9453125 20.1953125 C-14.2853125 20.1953125 -13.6253125 20.1953125 -12.9453125 20.1953125 C-12.86152344 19.50824219 -12.77773438 18.82117188 -12.69140625 18.11328125 C-11.76267595 14.4810219 -10.00567751 11.63013959 -8.0078125 8.5078125 C-7.46737305 7.63672852 -7.46737305 7.63672852 -6.91601562 6.74804688 C-2.86022918 0.2871716 -2.86022918 0.2871716 0 0 Z " fill="#FEB028" transform="translate(303.9453125,141.8046875)"/>
<path d="M0 0 C1.09188629 -0.00960754 2.18377258 -0.01921509 3.30874634 -0.02911377 C5.08056778 -0.03548859 5.08056778 -0.03548859 6.88818359 -0.04199219 C8.71426651 -0.0505423 8.71426651 -0.0505423 10.57723999 -0.05926514 C13.15792979 -0.06872041 15.73863169 -0.0752512 18.31933594 -0.07910156 C22.25005488 -0.08877718 26.18024432 -0.11978425 30.11083984 -0.15136719 C32.61995133 -0.15790034 35.12906655 -0.16314958 37.63818359 -0.16699219 C38.8072525 -0.17933899 39.97632141 -0.19168579 41.18081665 -0.20440674 C50.94806962 -0.17801809 58.61031136 1.25034824 65.86865234 8.05957031 C74.0819337 17.68646654 73.92954939 28.30203745 74.01171875 40.25878906 C74.02825434 42.01999142 74.05551296 43.78112732 74.09375 45.54199219 C74.1488708 48.09768028 74.17044474 50.65180323 74.18505859 53.20800781 C74.20772797 53.98537292 74.23039734 54.76273804 74.25375366 55.56365967 C74.23093539 61.54656247 72.48460315 65.55814515 68.66162109 70.16113281 C66.37255859 72.04394531 66.37255859 72.04394531 64.03662109 73.28613281 C63.17101562 73.76131348 62.30541016 74.23649414 61.41357422 74.72607422 C60.05135742 75.43642822 60.05135742 75.43642822 58.66162109 76.16113281 C56.77522248 77.18797678 54.88980376 78.21662294 53.00537109 79.24707031 C52.09142578 79.74045898 51.17748047 80.23384766 50.23583984 80.7421875 C45.79242065 83.19146219 41.53276717 85.91258007 37.25537109 88.63769531 C32.90047576 91.19554047 29.4194028 92.45162001 24.34912109 92.47363281 C23.46611328 92.49039063 22.58310547 92.50714844 21.67333984 92.52441406 C14.56868996 91.66743295 8.62437043 88.20133332 2.59912109 84.53613281 C1.87249268 84.10026855 1.14586426 83.6644043 0.3972168 83.21533203 C-1.10528653 82.31360192 -2.60634505 81.40946008 -4.10595703 80.50292969 C-6.27302231 79.20041538 -8.45138206 77.91960079 -10.63525391 76.64550781 C-11.97385272 75.85914675 -13.31239687 75.07269263 -14.65087891 74.28613281 C-15.26648682 73.9295459 -15.88209473 73.57295898 -16.51635742 73.20556641 C-21.04109591 70.52194584 -24.63713257 68.26487182 -26.33837891 63.16113281 C-26.47180537 60.25611662 -26.55073512 57.375999 -26.57666016 54.46972656 C-26.5847319 53.60984634 -26.59280365 52.74996613 -26.60112 51.86402893 C-26.61495256 50.04080209 -26.62567842 48.21754945 -26.63354492 46.39428711 C-26.64502369 44.54297213 -26.66540991 42.69168916 -26.69506836 40.84057617 C-26.89536086 28.33628208 -27.06341242 17.39427957 -18.05322266 7.69628906 C-12.63730135 2.84786748 -7.3123338 0.05195345 0 0 Z " fill="#1F5070" transform="translate(282.33837890625,381.8388671875)"/>
<path d="M0 0 C1.88137161 -0.00361794 1.88137161 -0.00361794 3.80075073 -0.00730896 C7.10901627 -0.00608618 10.41606607 0.01880667 13.72412109 0.0524292 C16.41344467 0.07105535 19.10216163 0.05627468 21.7914753 0.04131985 C25.02773725 0.0281443 28.26377076 0.0464819 31.5 0.0625 C32.69601837 0.05754013 33.89203674 0.05258026 35.1242981 0.04747009 C44.58179667 0.18020884 51.17300324 2.54221782 58.25390625 8.98828125 C60.62164143 11.83770468 60.88071249 14.00543757 60.6171875 17.62890625 C58.62957173 20.17553895 56.48824178 21.96197374 53.93359375 23.91796875 C44.87888193 31.13753853 40.58228011 41.43169997 38.6171875 52.62890625 C38.51951159 54.49315436 38.46332263 56.35988596 38.44140625 58.2265625 C38.41755859 59.27521484 38.39371094 60.32386719 38.36914062 61.40429688 C38.32609919 63.59940985 38.29488839 65.79478604 38.27539062 67.99023438 C38.24767578 69.03759766 38.21996094 70.08496094 38.19140625 71.1640625 C38.17682373 72.11676025 38.16224121 73.06945801 38.1472168 74.05102539 C37.46257878 77.3808701 36.29147247 78.58076353 33.6171875 80.62890625 C27.48085973 81.38971112 24.35955638 80.43640969 19.1171875 77.00390625 C17.81798429 76.17720229 16.51707452 75.35317666 15.21484375 74.53125 C14.49570801 74.07218262 13.77657227 73.61311523 13.03564453 73.14013672 C8.27748536 70.16688765 3.40683095 67.38255373 -1.4453125 64.56640625 C-2.48083252 63.96030518 -3.51635254 63.3542041 -4.58325195 62.72973633 C-8.97853536 60.16072862 -13.37339496 57.60708876 -17.859375 55.19921875 C-26.23731018 50.68826691 -31.24882991 46.92370931 -34.3828125 37.62890625 C-35.52363655 26.76454698 -34.06481551 17.95792071 -27.2578125 9.31640625 C-19.34646288 1.22022735 -10.96408823 -0.12195289 0 0 Z " fill="#205170" transform="translate(201.3828125,352.37109375)"/>
<path d="M0 0 C1.25137756 -0.0099852 2.50275513 -0.0199704 3.79205322 -0.03025818 C6.43493766 -0.04541606 9.07689585 -0.05378673 11.71972656 -0.05200195 C14.41044675 -0.05175829 17.09963338 -0.07256097 19.79003906 -0.11352539 C23.69382936 -0.16879479 27.59585617 -0.18322429 31.5 -0.1875 C32.68994568 -0.20905655 33.87989136 -0.2306131 35.105896 -0.25282288 C44.15663072 -0.17940152 51.09458175 2.16211225 57.95452881 8.21458435 C63.85974366 14.28027876 66.23162262 21.80812103 66.453125 30.12890625 C66.21558855 36.85910578 65.20077599 41.72280499 60.953125 47.12890625 C56.89603468 50.40910693 52.52704303 52.89956057 48.015625 55.50390625 C46.38436012 56.49309886 44.75320363 57.48247535 43.12402344 58.47509766 C33.04309964 64.6009445 22.74685361 70.34824957 12.45654297 76.11279297 C10.73182831 77.09573197 9.02675579 78.11352267 7.33691406 79.15527344 C3.65913051 81.29200843 1.21718541 80.91050887 -2.984375 80.50390625 C-4.69897461 79.32080078 -4.69897461 79.32080078 -5.984375 77.50390625 C-6.38500977 75.01123047 -6.38500977 75.01123047 -6.42578125 72.05859375 C-6.45220703 70.9809375 -6.47863281 69.90328125 -6.50585938 68.79296875 C-6.51939453 67.66632813 -6.53292969 66.5396875 -6.546875 65.37890625 C-6.70706704 55.22154438 -7.13120395 46.4162688 -11.859375 37.25390625 C-12.35179687 36.279375 -12.84421875 35.30484375 -13.3515625 34.30078125 C-16.00458093 29.75637648 -19.10300621 26.20582471 -23.109375 22.81640625 C-28.93766774 17.85685903 -28.93766774 17.85685903 -29.36328125 14.640625 C-28.89143598 10.73452446 -27.8993766 9.80677069 -24.921875 7.31640625 C-24.16777344 6.66285156 -23.41367187 6.00929688 -22.63671875 5.3359375 C-15.20492723 0.2026382 -8.8598438 0.02468888 0 0 Z " fill="#1F5070" transform="translate(378.984375,352.49609375)"/>
<path d="M0 0 C1.0725 0.556875 2.145 1.11375 3.25 1.6875 C9.34396485 6.81197044 13.61295354 13.94212338 14.37109375 21.890625 C14.61082427 30.42152321 14.53213952 37.06657975 9 44 C8.54238281 44.64324219 8.08476562 45.28648437 7.61328125 45.94921875 C2.65743897 52.42575784 -4.11310228 55.36822806 -12 57 C-19.54360697 57.84243327 -25.20110729 56.24032334 -32 53 C-32 52.34 -32 51.68 -32 51 C-32.58652344 50.92007813 -33.17304688 50.84015625 -33.77734375 50.7578125 C-39.03868163 48.96396444 -42.13613077 42.39333746 -44.9375 37.875 C-47.49292556 31.09756698 -47.12634059 21.56696864 -45.0625 14.6875 C-41.44042325 6.93557874 -34.61169566 0.19082268 -26.80078125 -3.22265625 C-17.43422679 -5.82229968 -8.47722372 -4.50548742 0 0 Z " fill="#205170" transform="translate(322,317)"/>
<path d="M0 0 C6.2182745 4.69825185 10.45184081 9.62529263 12.8125 17.125 C14.03630965 27.96772475 12.91640964 35.98218958 6.6875 44.8125 C1.5683112 51.08972939 -6.07270688 55.46137904 -14.203125 56.34375 C-23.60438791 56.73820858 -31.11003396 53.98024431 -38.28125 47.9453125 C-45.11607939 41.41861067 -47.35505231 33.92001545 -47.6875 24.75 C-47.48076306 15.70750621 -44.87901752 9.7041738 -38.6875 3.1875 C-27.48583918 -7.09678343 -12.82525286 -7.54426639 0 0 Z " fill="#205170" transform="translate(412.1875,288.875)"/>
<path d="M0 0 C7.43059636 4.86288063 13.17581135 10.78134031 16.0234375 19.32421875 C16.82187442 30.12275085 16.1307369 39.18115288 9.4609375 48.07421875 C3.45758242 54.31474341 -3.02779166 57.5561858 -11.66918945 57.98730469 C-19.58026153 58.06880332 -26.67031454 57.5700243 -32.9765625 52.32421875 C-40.66393061 44.61308753 -44.21620298 38.03365795 -44.4140625 27.01171875 C-44.25752511 17.67472381 -41.48876429 11.80284446 -35.2890625 4.94921875 C-25.88446609 -3.70230942 -11.51948016 -6.10232685 0 0 Z " fill="#1F5070" transform="translate(230.9765625,286.67578125)"/>
<path d="M0 0 C0.66 0 1.32 0 2 0 C2.08226668 3.04386724 1.97608217 5.07175348 1 8 C1.38932856 10.14255793 1.38932856 10.14255793 2 12 C2.99 10.68 3.98 9.36 5 8 C5 10.64 5 13.28 5 16 C3.68 16 2.36 16 1 16 C1.33 17.98 1.66 19.96 2 22 C2.99 22.33 3.98 22.66 5 23 C5 24.65 5 26.3 5 28 C4.34 28 3.68 28 3 28 C3.33 30.31 3.66 32.62 4 35 C0.25 36.125 0.25 36.125 -2 35 C-1.34 34.01 -0.68 33.02 0 32 C0.00883019 29.48633963 -0.09332374 27.11904445 -0.3125 24.625 C-0.36446533 23.91835205 -0.41643066 23.2117041 -0.4699707 22.48364258 C-0.7279481 19.03788455 -1.03825466 15.59995395 -1.3671875 12.16015625 C-1.47289062 11.01417969 -1.57859375 9.86820312 -1.6875 8.6875 C-1.79449219 7.66011719 -1.90148437 6.63273438 -2.01171875 5.57421875 C-2 3 -2 3 0 0 Z " fill="#FBF8ED" transform="translate(354,248)"/>
<path d="M0 0 C1.1875 1.5625 1.1875 1.5625 2 4 C1.28503542 5.72241466 0.5606806 7.44340557 -0.26171875 9.1171875 C-1.41822594 12.06658679 -1.19079596 14.88366592 -1 18 C-2.32 17.34 -3.64 16.68 -5 16 C-5 28.21 -5 40.42 -5 53 C-5.33 53 -5.66 53 -6 53 C-6.0996177 47.48654319 -6.1718191 41.97362172 -6.21972656 36.45947266 C-6.23971863 34.58763491 -6.26692168 32.71585862 -6.30175781 30.84423828 C-6.51174983 19.26379619 -6.62612933 9.939194 0 0 Z " fill="#49738C" transform="translate(262,392)"/>
<path d="M0 0 C1.85173325 0.00636726 1.85173325 0.00636726 3.74087524 0.01286316 C7.67382856 0.02962144 11.60626471 0.06726992 15.5390625 0.10546875 C18.20962792 0.12221135 20.88018849 0.13420692 23.55078125 0.14648438 C30.08871736 0.17951577 36.62635297 0.22968763 43.1640625 0.29296875 C43.1640625 0.62296875 43.1640625 0.95296875 43.1640625 1.29296875 C25.6740625 1.29296875 8.1840625 1.29296875 -9.8359375 1.29296875 C-10.4959375 2.61296875 -11.1559375 3.93296875 -11.8359375 5.29296875 C-13.9609375 6.04296875 -13.9609375 6.04296875 -15.8359375 6.29296875 C-15.5059375 5.63296875 -15.1759375 4.97296875 -14.8359375 4.29296875 C-16.1559375 3.96296875 -17.4759375 3.63296875 -18.8359375 3.29296875 C-12.93790042 -0.68339062 -6.91031219 -0.08961601 0 0 Z " fill="#2D556B" transform="translate(289.8359375,381.70703125)"/>
<path d="M0 0 C0.66 1.32 1.32 2.64 2 4 C2.66 4 3.32 4 4 4 C4 4.66 4 5.32 4 6 C3.05125 6.28875 2.1025 6.5775 1.125 6.875 C-2.05211578 7.76825109 -2.05211578 7.76825109 -4 10 C-4.70710678 11.64991582 -5.37943989 13.31562256 -6 15 C-6.33 14.01 -6.66 13.02 -7 12 C-7.99 13.32 -8.98 14.64 -10 16 C-10.66 15.67 -11.32 15.34 -12 15 C-10.73316987 8.66584936 -6.69536357 5.09866112 -2 1 C-1.34 0.67 -0.68 0.34 0 0 Z " fill="#2A5A78" transform="translate(379,288)"/>
<path d="M0 0 C0.99 0 1.98 0 3 0 C6.98757597 6.81210894 6.67496802 14.31237728 6 22 C4.98046875 24.45703125 4.98046875 24.45703125 4 26 C3.34 25.67 2.68 25.34 2 25 C2.11443603 22.9160597 2.24195547 20.83283507 2.375 18.75 C2.44460937 17.58984375 2.51421875 16.4296875 2.5859375 15.234375 C2.96248308 12.29305666 3.4774123 10.50050989 5 8 C4.01 7.67 3.02 7.34 2 7 C2.33 5.68 2.66 4.36 3 3 C2.01 3.33 1.02 3.66 0 4 C0 2.68 0 1.36 0 0 Z " fill="#23526F" transform="translate(241,299)"/>
<path d="M0 0 C2 3.75 2 3.75 2 6 C4.31 6.33 6.62 6.66 9 7 C7.68 7.99 6.36 8.98 5 10 C5.66 10.33 6.32 10.66 7 11 C7 11.66 7 12.32 7 13 C8.32 12.67 9.64 12.34 11 12 C10.67 13.32 10.34 14.64 10 16 C7.84436269 14.76478085 5.70159266 13.51329661 3.5625 12.25 C2.95083984 11.90195312 2.33917969 11.55390625 1.70898438 11.1953125 C-2.79629358 8.50708035 -2.79629358 8.50708035 -3.91015625 5.734375 C-3.93980469 5.16203125 -3.96945312 4.5896875 -4 4 C-3.01 4 -2.02 4 -1 4 C-0.67 2.68 -0.34 1.36 0 0 Z " fill="#20506C" transform="translate(261,442)"/>
<path d="M0 0 C3 2 3 2 5 5 C5.25396729 6.93505859 5.25396729 6.93505859 5.25878906 9.1484375 C5.26509338 9.97939941 5.27139771 10.81036133 5.27789307 11.66650391 C5.2738446 12.56030762 5.26979614 13.45411133 5.265625 14.375 C5.26753845 15.29587402 5.2694519 16.21674805 5.27142334 17.16552734 C5.27278421 19.11230747 5.26909463 21.05909669 5.26074219 23.00585938 C5.2500413 25.98848828 5.26064082 28.97051486 5.2734375 31.953125 C5.27211589 33.84375133 5.26955346 35.73437729 5.265625 37.625 C5.26967346 38.51880371 5.27372192 39.41260742 5.27789307 40.33349609 C5.27158875 41.16445801 5.26528442 41.99541992 5.25878906 42.8515625 C5.25719788 43.58197754 5.25560669 44.31239258 5.25396729 45.06494141 C5 47 5 47 3 50 C2.34 50 1.68 50 1 50 C1.16200394 49.41869324 1.32400787 48.83738647 1.49092102 48.23846436 C2.29123376 44.71941994 2.16288048 41.16956784 2.16796875 37.578125 C2.17129715 36.75930847 2.17462555 35.94049194 2.17805481 35.09686279 C2.18311111 33.36536214 2.18546354 31.63385178 2.18530273 29.90234375 C2.18748072 27.27327074 2.20562655 24.64462336 2.22460938 22.015625 C2.22754539 20.32812642 2.22952879 18.64062587 2.23046875 16.953125 C2.23765427 16.17575989 2.24483978 15.39839478 2.25224304 14.59747314 C2.23093639 9.42236377 1.42618817 4.97841062 0 0 Z " fill="#ECF4F7" transform="translate(353,398)"/>
<path d="M0 0 C0.33 0 0.66 0 1 0 C1.40820882 10.09182907 0.16108676 19.99599356 -1 30 C-1.33 30 -1.66 30 -2 30 C-2.22224251 27.41718164 -2.42823488 24.83477813 -2.625 22.25 C-2.68945312 21.52039063 -2.75390625 20.79078125 -2.8203125 20.0390625 C-3.11369948 16.00499148 -3.03992066 13.47986465 -1 10 C-0.54935368 7.41467299 -0.54935368 7.41467299 -0.375 4.75 C-0.30023438 3.85796875 -0.22546875 2.9659375 -0.1484375 2.046875 C-0.09945313 1.37140625 -0.05046875 0.6959375 0 0 Z " fill="#FCF2D8" transform="translate(260,234)"/>
<path d="M0 0 C2.64 0.66 5.28 1.32 8 2 C8 1.34 8 0.68 8 0 C8.99 0 9.98 0 11 0 C10 3 10 3 8.328125 4.16796875 C1.42748092 7.55343511 1.42748092 7.55343511 -3 7 C-1.68 5.35 -0.36 3.7 1 2 C0.67 1.34 0.34 0.68 0 0 Z " fill="#2D5A78" transform="translate(224,337)"/>
<path d="M0 0 C0.33 0 0.66 0 1 0 C1.13277344 1.27617187 1.26554687 2.55234375 1.40234375 3.8671875 C1.58052665 5.53647996 1.75892314 7.20574964 1.9375 8.875 C2.02451172 9.71675781 2.11152344 10.55851562 2.20117188 11.42578125 C2.28818359 12.23144531 2.37519531 13.03710938 2.46484375 13.8671875 C2.543396 14.61081543 2.62194824 15.35444336 2.70288086 16.12060547 C2.91637347 18.08446316 2.91637347 18.08446316 4 20 C0.125 18.25 0.125 18.25 -1 16 C-0.91075148 13.2764805 -0.76646668 10.58986689 -0.5625 7.875 C-0.51029297 7.12089844 -0.45808594 6.36679687 -0.40429688 5.58984375 C-0.27454996 3.7262063 -0.13792512 1.86305004 0 0 Z " fill="#FBB439" transform="translate(258,264)"/>
<path d="M0 0 C2.57528248 3.86292371 2.29454471 7.08946878 2.25 11.5625 C2.25773437 12.34302734 2.26546875 13.12355469 2.2734375 13.92773438 C2.25335498 19.74664502 2.25335498 19.74664502 0 22 C-0.66 21.01 -1.32 20.02 -2 19 C-1.52643889 17.41018771 -1.0442622 15.82235681 -0.515625 14.25 C0.55004344 9.59981045 0.14018833 4.7430385 0 0 Z " fill="#37637E" transform="translate(334,332)"/>
<path d="M0 0 C1.22419811 3.67259434 0.54143712 4.57458418 -1 8 C-1.33 8.99 -1.66 9.98 -2 11 C-4.31 10.67 -6.62 10.34 -9 10 C-8.67 9.34 -8.34 8.68 -8 8 C-7.34 8 -6.68 8 -6 8 C-5.731875 7.360625 -5.46375 6.72125 -5.1875 6.0625 C-4 4 -4 4 -1 3 C-0.67 2.01 -0.34 1.02 0 0 Z " fill="#FBF2E0" transform="translate(377,205)"/>
<path d="M0 0 C2 3 2 3 2 6 C3.32 6 4.64 6 6 6 C6.33 8.31 6.66 10.62 7 13 C5.02 12.34 3.04 11.68 1 11 C1 9.35 1 7.7 1 6 C0.34 5.67 -0.32 5.34 -1 5 C-0.67 3.35 -0.34 1.7 0 0 Z " fill="#FAFAEB" transform="translate(333,171)"/>
<path d="M0 0 C2.29141286 -0.05384521 4.58318188 -0.09272087 6.875 -0.125 C8.78925781 -0.15980469 8.78925781 -0.15980469 10.7421875 -0.1953125 C14 0 14 0 16 2 C15.34 2.66 14.68 3.32 14 4 C10.9609375 3.9765625 10.9609375 3.9765625 7.375 3.625 C6.18648437 3.51414062 4.99796875 3.40328125 3.7734375 3.2890625 C2.85820312 3.19367188 1.94296875 3.09828125 1 3 C0.67 2.01 0.34 1.02 0 0 Z " fill="#2F5B79" transform="translate(210,284)"/>
<path d="M0 0 C0.66 0 1.32 0 2 0 C2.33 0.66 2.66 1.32 3 2 C3.66 2 4.32 2 5 2 C5 4.97 5 7.94 5 11 C4.01 10.67 3.02 10.34 2 10 C2 9.34 2 8.68 2 8 C1.34 8 0.68 8 0 8 C0 5.36 0 2.72 0 0 Z " fill="#FBF8EC" transform="translate(227,192)"/>
<path d="M0 0 C1.42892578 0.11794922 1.42892578 0.11794922 2.88671875 0.23828125 C5.3125 0.6875 5.3125 0.6875 7.3125 2.6875 C0.81698709 3.89037276 -4.29735973 3.27194052 -10.6875 1.6875 C-10.6875 1.3575 -10.6875 1.0275 -10.6875 0.6875 C-6.96764333 -0.21366746 -3.80715974 -0.34799414 0 0 Z " fill="#FCB235" transform="translate(264.6875,186.3125)"/>
<path d="M0 0 C0 0.33 0 0.66 0 1 C-2.64 1 -5.28 1 -8 1 C-8.2475 1.639375 -8.495 2.27875 -8.75 2.9375 C-10 5 -10 5 -12.125 5.75 C-13.053125 5.87375 -13.053125 5.87375 -14 6 C-13.67 5.34 -13.34 4.68 -13 4 C-14.32 3.67 -15.64 3.34 -17 3 C-11.42531458 -0.61601216 -6.39432346 -0.30720059 0 0 Z " fill="#3C6782" transform="translate(288,382)"/>
<path d="M0 0 C0.33 0.66 0.66 1.32 1 2 C0.01 3.485 0.01 3.485 -1 5 C-1.66 5 -2.32 5 -3 5 C-3 6.32 -3 7.64 -3 9 C-0.36 9.33 2.28 9.66 5 10 C3.68 11.32 2.36 12.64 1 14 C-1.5 12.375 -1.5 12.375 -4 10 C-4.5625 7 -4.5625 7 -4 4 C-2 1.625 -2 1.625 0 0 Z " fill="#38627B" transform="translate(354,360)"/>
<path d="M0 0 C2.475 0.99 2.475 0.99 5 2 C5 5 5 5 2.5 7.6875 C1.675 8.450625 0.85 9.21375 0 10 C-0.66 9.67 -1.32 9.34 -2 9 C-0.125 5.125 -0.125 5.125 1 4 C0.59070014 1.94603274 0.59070014 1.94603274 0 0 Z " fill="#285776" transform="translate(436,393)"/>
<path d="M0 0 C2.35171131 0.59861742 4.6859378 1.26924352 7 2 C7.33 2.66 7.66 3.32 8 4 C6 4.66666667 4 5.33333333 2 6 C-1.1875 4.0625 -1.1875 4.0625 -4 2 C-3.34 1.67 -2.68 1.34 -2 1 C-1.34 1.33 -0.68 1.66 0 2 C0 1.34 0 0.68 0 0 Z " fill="#315D7B" transform="translate(201,336)"/>
<path d="M0 0 C1.89213369 2.38573379 3.02391783 4.07175348 4 7 C3.0625 9.1875 3.0625 9.1875 2 11 C1.01 10.67 0.02 10.34 -1 10 C-2.15837626 5.94568308 -1.83691257 3.78187881 0 0 Z " fill="#EDF3F3" transform="translate(188,325)"/>
<path d="M0 0 C0.33 0 0.66 0 1 0 C1 4.29 1 8.58 1 13 C0.34 12.67 -0.32 12.34 -1 12 C-1.66 12.99 -2.32 13.98 -3 15 C-3 11.37 -3 7.74 -3 4 C-2.01 4.495 -2.01 4.495 -1 5 C-0.67 3.35 -0.34 1.7 0 0 Z " fill="#3F6C87" transform="translate(444,376)"/>
<path d="M0 0 C0.33 0.66 0.66 1.32 1 2 C1.99 2.33 2.98 2.66 4 3 C3.690625 3.7425 3.38125 4.485 3.0625 5.25 C2.1905075 7.50692176 1.52332993 9.6450153 1 12 C-0.625 9.375 -0.625 9.375 -2 6 C-1.1875 2.625 -1.1875 2.625 0 0 Z " fill="#295976" transform="translate(172,364)"/>
<path d="M0 0 C3.0831351 1.19899698 6.06279492 2.47700477 9 4 C9 4.66 9 5.32 9 6 C6.69 6.33 4.38 6.66 2 7 C1.34 4.69 0.68 2.38 0 0 Z " fill="#F1F3F6" transform="translate(198,416)"/>
<path d="M0 0 C0.66 0 1.32 0 2 0 C2 1.32 2 2.64 2 4 C-2.95 6.475 -2.95 6.475 -8 9 C-8 8.01 -8 7.02 -8 6 C-2.25 3 -2.25 3 0 3 C0 2.01 0 1.02 0 0 Z " fill="#325E78" transform="translate(419,408)"/>
<path d="M0 0 C5.625 -0.25 5.625 -0.25 9 2 C9 2.66 9 3.32 9 4 C9.66 4 10.32 4 11 4 C11 4.66 11 5.32 11 6 C6.80639551 5.32902328 3.59665648 3.1441606 0 1 C0 0.67 0 0.34 0 0 Z " fill="#2E5E75" transform="translate(285,465)"/>
<path d="M0 0 C1.125 1.625 1.125 1.625 2 4 C1.125 7.25 1.125 7.25 0 10 C-1.32 9.67 -2.64 9.34 -4 9 C-2.94124926 5.59687262 -1.99097846 2.98646769 0 0 Z " fill="#35627E" transform="translate(262,392)"/>
<path d="M0 0 C0.66 0 1.32 0 2 0 C2 1.65 2 3.3 2 5 C1.67 5 1.34 5 1 5 C0.67 8.63 0.34 12.26 0 16 C-0.33 16 -0.66 16 -1 16 C-1.22197585 13.89722877 -1.42713637 11.79267698 -1.625 9.6875 C-1.74101562 8.51574219 -1.85703125 7.34398437 -1.9765625 6.13671875 C-2 3 -2 3 0 0 Z " fill="#FAF0CF" transform="translate(354,248)"/>
<path d="M0 0 C0.99 0 1.98 0 3 0 C6.07692308 6.4 6.07692308 6.4 5.6875 9.4375 C5.460625 9.953125 5.23375 10.46875 5 11 C5 10.01 5 9.02 5 8 C4.01 7.67 3.02 7.34 2 7 C2.33 5.68 2.66 4.36 3 3 C2.01 3.33 1.02 3.66 0 4 C0 2.68 0 1.36 0 0 Z " fill="#39647D" transform="translate(241,299)"/>
<path d="M0 0 C0.33 0.66 0.66 1.32 1 2 C-0.43257963 4.72872311 -1.81722366 6.81722366 -4 9 C-6.625 9.125 -6.625 9.125 -9 9 C-8.2575 8.443125 -7.515 7.88625 -6.75 7.3125 C-4.08292005 5.06972822 -2.08443768 2.77925025 0 0 Z " fill="#DFEAEE" transform="translate(419,332)"/>
<path d="M0 0 C2.64 0.66 5.28 1.32 8 2 C7.34 2.66 6.68 3.32 6 4 C4.68 4 3.36 4 2 4 C2 4.66 2 5.32 2 6 C1.34 6 0.68 6 0 6 C0 4.02 0 2.04 0 0 Z " fill="#FCF4E2" transform="translate(320,274)"/>
<path d="M0 0 C6.0546875 -0.1953125 6.0546875 -0.1953125 8 0 C8.66 0.66 9.32 1.32 10 2 C9.01 2 8.02 2 7 2 C7 2.66 7 3.32 7 4 C5.35 4 3.7 4 2 4 C2 3.34 2 2.68 2 2 C1.34 1.34 0.68 0.68 0 0 Z " fill="#FBF0D3" transform="translate(302,268)"/>
<path d="M0 0 C2.475 0.495 2.475 0.495 5 1 C5.33 1.99 5.66 2.98 6 4 C7.32 4 8.64 4 10 4 C10.33 4.99 10.66 5.98 11 7 C6.96678237 5.78065514 3.45730521 4.44045073 0 2 C0 1.34 0 0.68 0 0 Z " fill="#3C6379" transform="translate(274,458)"/>
<path d="M0 0 C0 0.99 0 1.98 0 3 C1.32 3 2.64 3 4 3 C3.34 4.32 2.68 5.64 2 7 C0.68 6.67 -0.64 6.34 -2 6 C-2.33 6.66 -2.66 7.32 -3 8 C-2.25 2.25 -2.25 2.25 0 0 Z " fill="#FAB53B" transform="translate(234,192)"/>
<path d="M0 0 C0.66 0 1.32 0 2 0 C3.2890625 1.53125 3.2890625 1.53125 4.625 3.5 C5.07101562 4.1496875 5.51703125 4.799375 5.9765625 5.46875 C6.31429688 5.9740625 6.65203125 6.479375 7 7 C6.67 7.66 6.34 8.32 6 9 C5.34 9 4.68 9 4 9 C4 8.01 4 7.02 4 6 C2.68 5.67 1.36 5.34 0 5 C0.66 5 1.32 5 2 5 C1.34 3.35 0.68 1.7 0 0 Z " fill="#416980" transform="translate(326,321)"/>
<path d="M0 0 C1.32 1.32 2.64 2.64 4 4 C3.67 4.66 3.34 5.32 3 6 C1.35 6 -0.3 6 -2 6 C-1.49396008 3.83125748 -1.00016187 2.00032373 0 0 Z " fill="#E6EDEF" transform="translate(282,362)"/>
<path d="M0 0 C0.33 0.99 0.66 1.98 1 3 C1.66 3.33 2.32 3.66 3 4 C0.33333333 6.66666667 -2.33333333 9.33333333 -5 12 C-5 7.98905773 -3.23899001 6.25671275 -1 3 C-0.67 2.01 -0.34 1.02 0 0 Z " fill="#D9E6EA" transform="translate(244,326)"/>
<path d="M0 0 C0 3.69418201 -1.28179295 5.77836178 -3 9 C-3.66 9 -4.32 9 -5 9 C-5.33 9.99 -5.66 10.98 -6 12 C-5.59791618 6.37082652 -3.71069698 3.99613521 0 0 Z " fill="#FCE5C3" transform="translate(357,226)"/>
<path d="M0 0 C0.33 0.66 0.66 1.32 1 2 C0.0625 4.625 0.0625 4.625 -1 7 C-2.65 7 -4.3 7 -6 7 C-4.02 4.69 -2.04 2.38 0 0 Z " fill="#FAF2DB" transform="translate(367,216)"/>
<path d="M0 0 C0.66 1.32 1.32 2.64 2 4 C0 5 -2 6 -4 7 C-4 6.34 -4 5.68 -4 5 C-5.65 5 -7.3 5 -9 5 C-9 4.67 -9 4.34 -9 4 C-6.36 3.67 -3.72 3.34 -1 3 C-0.67 2.01 -0.34 1.02 0 0 Z " fill="#D0DDE2" transform="translate(238,429)"/>
<path d="M0 0 C2.50037734 2.17424117 3.43628586 3.73045798 4 7 C3.01 7 2.02 7 1 7 C1 6.34 1 5.68 1 5 C0.34 5 -0.32 5 -1 5 C-1.33 5.66 -1.66 6.32 -2 7 C-2.33 6.01 -2.66 5.02 -3 4 C-1.68 4 -0.36 4 1 4 C0.67 2.68 0.34 1.36 0 0 Z " fill="#39657F" transform="translate(349,392)"/>
<path d="M0 0 C0.33 0.66 0.66 1.32 1 2 C1.66 2 2.32 2 3 2 C2.6875 3.875 2.6875 3.875 2 6 C1.01 6.66 0.02 7.32 -1 8 C-1.04241723 5.66705225 -1.04092937 3.33297433 -1 1 C-0.67 0.67 -0.34 0.34 0 0 Z " fill="#335F78" transform="translate(237,330)"/>
<path d="M0 0 C-0.66 1.32 -1.32 2.64 -2 4 C-2.66 4 -3.32 4 -4 4 C-4 4.66 -4 5.32 -4 6 C-5.65 5.67 -7.3 5.34 -9 5 C-2.87096774 0 -2.87096774 0 0 0 Z " fill="#DAE3E7" transform="translate(334,462)"/>
<path d="M0 0 C1.68762851 1.6454378 3.3540349 3.31288577 5 5 C5 5.33 5 5.66 5 6 C3.35 6 1.7 6 0 6 C-0.38218767 4.34385343 -0.71395102 2.67542976 -1 1 C-0.67 0.67 -0.34 0.34 0 0 Z " fill="#E5EBEE" transform="translate(169,395)"/>
<path d="M0 0 C0.33 0 0.66 0 1 0 C0.67 2.31 0.34 4.62 0 7 C-0.99 7.33 -1.98 7.66 -3 8 C-2.67 6.02 -2.34 4.04 -2 2 C-1.34 2 -0.68 2 0 2 C0 1.34 0 0.68 0 0 Z " fill="#345F7C" transform="translate(261,365)"/>
<path d="M0 0 C1.32 0.33 2.64 0.66 4 1 C4 1.66 4 2.32 4 3 C4.66 3 5.32 3 6 3 C6.33 4.32 6.66 5.64 7 7 C6.01 7 5.02 7 4 7 C2.02 3.535 2.02 3.535 0 0 Z " fill="#35607C" transform="translate(368,328)"/>
<path d="M0 0 C-0.66 1.98 -1.32 3.96 -2 6 C-2.66 6 -3.32 6 -4 6 C-4.33 5.34 -4.66 4.68 -5 4 C-5.66 3.67 -6.32 3.34 -7 3 C-2.25 0 -2.25 0 0 0 Z " fill="#38637F" transform="translate(206,286)"/>
<path d="M0 0 C1.65 0.33 3.3 0.66 5 1 C3.68 2.32 2.36 3.64 1 5 C0.01 4.01 -0.98 3.02 -2 2 C-1.34 2 -0.68 2 0 2 C0 1.34 0 0.68 0 0 Z " fill="#EBEFF1" transform="translate(371,289)"/>
<path d="M0 0 C1.98 0 3.96 0 6 0 C6.33 0.66 6.66 1.32 7 2 C6.67 2.66 6.34 3.32 6 4 C3.36 4 0.72 4 -2 4 C-2 3.67 -2 3.34 -2 3 C-0.02 3 1.96 3 4 3 C4 2.34 4 1.68 4 1 C2.68 0.67 1.36 0.34 0 0 Z " fill="#F8BC4E" transform="translate(346,281)"/>
<path d="M0 0 C1.32 0.66 2.64 1.32 4 2 C3.67 2.66 3.34 3.32 3 4 C1.68 4 0.36 4 -1 4 C-1.66 3.34 -2.32 2.68 -3 2 C-2.01 1.34 -1.02 0.68 0 0 Z " fill="#E7ECEF" transform="translate(323,467)"/>
<path d="M0 0 C0.33 0.99 0.66 1.98 1 3 C-1.97 5.475 -1.97 5.475 -5 8 C-5.66 7.34 -6.32 6.68 -7 6 C-6.21625 5.566875 -5.4325 5.13375 -4.625 4.6875 C-1.78301625 3.10779753 -1.78301625 3.10779753 0 0 Z " fill="#D3DEE6" transform="translate(353,448)"/>
<path d="M0 0 C0.66 0.33 1.32 0.66 2 1 C1.34 2.32 0.68 3.64 0 5 C-1.32 4.67 -2.64 4.34 -4 4 C-3.67 3.01 -3.34 2.02 -3 1 C-2.01 0.67 -1.02 0.34 0 0 Z " fill="#F3F8F7" transform="translate(260,392)"/>
<path d="M0 0 C0.99 0.66 1.98 1.32 3 2 C2.67 2.66 2.34 3.32 2 4 C1.34 3.67 0.68 3.34 0 3 C0 3.66 0 4.32 0 5 C-1.32 5.33 -2.64 5.66 -4 6 C-1.125 1.125 -1.125 1.125 0 0 Z " fill="#315F7E" transform="translate(284,322)"/>
<path d="M0 0 C2.8992226 0.46761655 3.86675182 0.86675182 6 3 C4.02 3.33 2.04 3.66 0 4 C-0.33 3.01 -0.66 2.02 -1 1 C-0.67 0.67 -0.34 0.34 0 0 Z " fill="#FABA3C" transform="translate(282,273)"/>
<path d="M0 0 C0.33 2.64 0.66 5.28 1 8 C0.34 8 -0.32 8 -1 8 C-1.309375 7.21625 -1.61875 6.4325 -1.9375 5.625 C-2.92875038 3.07669872 -2.92875038 3.07669872 -4 1 C-2 0 -2 0 0 0 Z " fill="#FBF2E4" transform="translate(316,144)"/>
<path d="M0 0 C0.66 0.33 1.32 0.66 2 1 C1.67 1.66 1.34 2.32 1 3 C2.65 3.33 4.3 3.66 6 4 C2.85179059 5.04940314 2.00659136 5.066855 -1 4 C-1.66 3.34 -2.32 2.68 -3 2 C-2.01 1.34 -1.02 0.68 0 0 Z " fill="#E7EFF2" transform="translate(337,459)"/>
<path d="M0 0 C1.32 0 2.64 0 4 0 C4 0.66 4 1.32 4 2 C5.32 1.67 6.64 1.34 8 1 C7.67 2.32 7.34 3.64 7 5 C3.535 3.02 3.535 3.02 0 1 C0 0.67 0 0.34 0 0 Z " fill="#3E677E" transform="translate(264,453)"/>
<path d="M0 0 C1.875 0.3125 1.875 0.3125 4 1 C4.66 1.99 5.32 2.98 6 4 C5.01 4.33 4.02 4.66 3 5 C1.5 3.625 1.5 3.625 0 2 C0 1.34 0 0.68 0 0 Z " fill="#406C88" transform="translate(257,446)"/>
<path d="M0 0 C0.66 0.99 1.32 1.98 2 3 C1.34 3 0.68 3 0 3 C-0.33 3.66 -0.66 4.32 -1 5 C-2.65 3.68 -4.3 2.36 -6 1 C-4.02 0.67 -2.04 0.34 0 0 Z " fill="#2C5B77" transform="translate(194,408)"/>
<path d="M0 0 C2.64 0.33 5.28 0.66 8 1 C6.68 1.99 5.36 2.98 4 4 C2 3 2 3 0 0 Z " fill="#2A5876" transform="translate(310,314)"/>
<path d="M0 0 C2.5 1.3125 2.5 1.3125 5 3 C5 3.99 5 4.98 5 6 C4.01 6.495 4.01 6.495 3 7 C3 6.01 3 5.02 3 4 C2.34 4 1.68 4 1 4 C0.67 2.68 0.34 1.36 0 0 Z " fill="#2E5C7A" transform="translate(232,288)"/>
<path d="M0 0 C3.3 0 6.6 0 10 0 C10.33 0.99 10.66 1.98 11 3 C7.37 2.34 3.74 1.68 0 1 C0 0.67 0 0.34 0 0 Z " fill="#FCF1D0" transform="translate(368,189)"/>
</svg>
