<?xml version="1.0" encoding="UTF-8"?>
<svg version="1.1" xmlns="http://www.w3.org/2000/svg" width="512" height="512">
<path d="M0 0 C1.73242517 1.51454347 3.44021195 3.05763657 5.125 4.625 C5.85493164 5.29354004 5.85493164 5.29354004 6.59960938 5.97558594 C27.97869574 25.71533805 41.10299841 53.58155138 42.41015625 82.73828125 C43.17521191 112.14680389 34.34290665 140.74884233 14.125 162.625 C3.260603 174.0571985 3.260603 174.0571985 0.125 175.625 C0.62201416 175.88079834 1.11902832 176.13659668 1.63110352 176.40014648 C49.23537143 200.976979 87.00032285 236.28318044 103.9375 288.5 C109.7336235 307.0846825 112.125 325.15960635 112.125 344.625 C99.915 344.625 87.705 344.625 75.125 344.625 C74.8775 341.551875 74.63 338.47875 74.375 335.3125 C71.07230638 299.36448986 57.13861188 268.58897708 32.125 242.625 C31.48304688 241.91988281 30.84109375 241.21476562 30.1796875 240.48828125 C16.31650539 225.69488562 -2.90025738 215.21171233 -21.875 208.625 C-22.51985352 208.39828613 -23.16470703 208.17157227 -23.82910156 207.93798828 C-53.97084707 197.5827687 -86.87660751 198.07833877 -116.875 208.625 C-117.82681152 208.95540283 -117.82681152 208.95540283 -118.79785156 209.29248047 C-147.69102614 219.5307464 -173.55862948 239.60800829 -189.875 265.625 C-190.22997559 266.18896484 -190.58495117 266.75292969 -190.95068359 267.33398438 C-205.85053065 291.38767212 -211.87322322 316.60012507 -213.875 344.625 C-226.085 344.625 -238.295 344.625 -250.875 344.625 C-250.875 326.98384126 -250.875 326.98384126 -249.75 319.625 C-249.61875732 318.75182129 -249.48751465 317.87864258 -249.35229492 316.97900391 C-241.64913989 269.02463075 -215.56353901 225.95968862 -176.375 197.125 C-164.62172181 188.65378355 -151.83002818 182.04322334 -138.875 175.625 C-139.34808594 175.22410156 -139.82117188 174.82320312 -140.30859375 174.41015625 C-159.65009828 157.78324885 -173.34877485 137.81359529 -178.875 112.625 C-179.09800781 111.65433594 -179.32101563 110.68367187 -179.55078125 109.68359375 C-185.22968372 80.05285774 -178.19563341 49.67607326 -161.875 24.625 C-159.09736149 20.72523579 -156.11329383 17.14917852 -152.875 13.625 C-152.42785645 13.13547852 -151.98071289 12.64595703 -151.52001953 12.14160156 C-112.65390078 -29.94001139 -45.14394741 -35.68768296 0 0 Z M-126.43359375 39.50390625 C-139.99278432 56.67583225 -145.94049858 75.96031735 -143.875 97.625 C-141.3550462 116.81777314 -131.21123559 133.86889692 -116.70703125 146.45703125 C-99.1555223 159.89301397 -78.56428498 165.09779339 -56.70556641 162.35253906 C-37.9941612 159.07374728 -20.16242965 147.7751361 -8.875 132.625 C2.69942435 115.19858125 8.02432141 95.26857019 4.51171875 74.38671875 C0.49524973 54.91661122 -10.45240076 38.02137414 -26.7265625 26.62109375 C-59.50651647 5.83876562 -100.26675862 10.06122305 -126.43359375 39.50390625 Z " fill="#000000" transform="translate(280.875,106.375)"/>
<path d="M0 0 C0.85078125 0.68578125 1.7015625 1.3715625 2.578125 2.078125 C24.3891738 20.59694002 37.29750916 48.44237954 39.73071289 76.7109375 C41.70166417 107.12561715 32.04497645 136.21428695 12.23217773 159.37841797 C7.85411147 164.33895408 3.0684259 168.74516091 -2 173 C0.78742709 175.78742709 4.19882191 176.97723553 7.75 178.5625 C25.04687279 186.51672308 40.21807598 197.92101801 54 211 C54.4729248 211.44569336 54.94584961 211.89138672 55.43310547 212.35058594 C91.59246376 246.63902396 108.00124885 293.03059692 110 342 C97.79 342 85.58 342 73 342 C72.608125 338.473125 72.21625 334.94625 71.8125 331.3125 C67.9885037 299.9188622 57.5338504 272.25408297 37 248 C36.236875 247.08347656 35.47375 246.16695313 34.6875 245.22265625 C29.36047463 239.04901435 23.46062082 233.95584582 17 229 C16.14792969 228.33226562 15.29585938 227.66453125 14.41796875 226.9765625 C-5.31220732 212.00884272 -27.27329002 204.88486606 -51 199 C-50.6544463 193.06193255 -50.6544463 193.06193255 -50.4609375 190.60131836 C-50.09870834 185.79406407 -50.00914906 181.06369328 -50.0859375 176.2421875 C-50.05444946 158.52410967 -50.05444946 158.52410967 -46.40234375 154.03710938 C-42.3768594 150.98398357 -37.8224246 149.3794882 -33.0703125 147.78320312 C-19.57903499 142.67942739 -10.06087224 127.34164007 -4 115 C4.19039653 95.89717605 3.58682244 75.10583943 -4 56 C-11.89400812 37.80823959 -26.09221817 25.2694177 -43.875 17.125 C-51.77763316 14.04467256 -60.59808691 12.36804718 -69.05297852 11.79199219 C-72 11 -72 11 -73.61157227 8.734375 C-74.00916748 7.74953125 -74.4067627 6.7646875 -74.81640625 5.75 C-75.27080078 4.66589844 -75.72519531 3.58179687 -76.19335938 2.46484375 C-76.64517578 1.32144531 -77.09699219 0.17804688 -77.5625 -1 C-78.47630621 -3.23087626 -79.39421614 -5.46007637 -80.31640625 -7.6875 C-80.75742676 -8.76 -81.19844727 -9.8325 -81.65283203 -10.9375 C-83.23827354 -14.54166425 -85.07995189 -17.91526016 -87.09741211 -21.29296875 C-88 -23 -88 -23 -88 -25 C-56.01114649 -29.48966365 -24.87583381 -20.37850792 0 0 Z " fill="#000000" transform="translate(372,85)"/>
</svg>
